<?xml version="1.0" standalone="no"?>
<!DOCTYPE svg PUBLIC "-//W3C//DTD SVG 20010904//EN"
 "http://www.w3.org/TR/2001/REC-SVG-20010904/DTD/svg10.dtd">
<svg version="1.0" xmlns="http://www.w3.org/2000/svg"
 width="512.000000pt" height="512.000000pt" viewBox="0 0 512.000000 512.000000"
 preserveAspectRatio="xMidYMid meet">
<metadata>
Created by potrace 1.14, written by Peter Selinger 2001-2017
</metadata>
<g transform="translate(0.000000,512.000000) scale(0.100000,-0.100000)"
fill="#000000" stroke="none">
<path d="M0 2560 l0 -2560 114 0 c82 0 116 4 119 13 4 9 6 9 6 0 1 -10 496
-13 2441 -13 l2440 0 0 2560 0 2560 -2560 0 -2560 0 0 -2560z m3526 2512 c-17
-16 -18 -16 -5 5 7 12 15 20 18 17 3 -2 -3 -12 -13 -22z m44 4 c0 -2 -8 -10
-17 -17 -16 -13 -17 -12 -4 4 13 16 21 21 21 13z m-2840 -160 c0 -11 -19 -15
-25 -6 -3 5 1 10 9 10 9 0 16 -2 16 -4z m625 -59 c6 -22 4 -26 -8 -21 -15 5
-27 34 -27 64 0 23 27 -9 35 -43z m568 -25 c3 -4 8 -25 11 -47 6 -32 5 -38 -5
-27 -18 17 -34 15 -19 -3 10 -12 10 -15 -3 -15 -19 0 -47 59 -47 98 0 30 0 30
30 16 16 -9 31 -18 33 -22z m-1313 -59 c0 -17 6 -38 13 -45 18 -18 88 -138 80
-138 -3 0 0 -7 7 -15 7 -9 10 -19 5 -23 -19 -19 -116 137 -149 240 -6 20 10
34 17 16 3 -7 6 -4 6 7 2 34 21 -5 21 -42z m2761 40 c-5 -10 -17 -27 -25 -38
-15 -19 -16 -19 -9 -1 5 14 3 17 -7 11 -9 -5 -11 -4 -6 4 4 6 11 9 16 6 5 -3
14 4 20 15 6 11 13 20 16 20 2 0 0 -8 -5 -17z m-1798 -76 c4 -31 3 -46 -3 -42
-6 3 -10 27 -10 52 0 57 5 53 13 -10z m-36 -24 c-3 -10 -5 -2 -5 17 0 19 2 27
5 18 2 -10 2 -26 0 -35z m2103 42 c0 -2 -10 -9 -22 -15 -22 -11 -22 -10 -4 4
21 17 26 19 26 11z m527 -11 c-3 -3 -12 -4 -19 -1 -8 3 -5 6 6 6 11 1 17 -2
13 -5z m-2777 -30 c0 -14 -3 -14 -15 -4 -20 17 -20 14 15 -70 18 -45 24 -68
15 -60 -36 30 -62 97 -56 143 2 15 41 7 41 -9z m1894 -26 c-8 -15 -17 -28 -20
-28 -2 0 0 9 6 20 6 11 9 24 6 29 -3 4 1 8 9 8 12 0 12 -5 -1 -29z m-2404 2
c0 -5 -2 -10 -4 -10 -3 0 -8 5 -11 10 -3 6 -1 10 4 10 6 0 11 -4 11 -10z
m2351 -67 c-11 -21 -20 -35 -21 -31 0 12 33 78 38 74 2 -2 -6 -21 -17 -43z
m222 -77 c-10 -13 -20 -22 -22 -20 -4 4 29 44 36 44 2 0 -4 -11 -14 -24z
m-2378 -77 c-3 -9 -1 -20 5 -24 5 -3 10 -14 10 -23 -1 -15 -3 -14 -16 3 -8 11
-13 28 -11 37 3 9 -1 25 -9 35 -21 28 -16 41 7 14 11 -14 17 -31 14 -42z
m-300 20 c6 -25 11 -30 27 -26 11 3 17 3 14 0 -3 -4 1 -17 9 -30 9 -13 12 -23
8 -23 -4 0 6 -13 22 -30 22 -23 25 -30 12 -30 -9 0 -17 3 -17 8 0 4 -18 25
-39 47 -41 44 -74 99 -64 109 13 13 22 5 28 -25z m-573 -30 c15 -8 19 -8 14 0
-4 6 -3 11 2 11 17 0 34 -58 30 -99 -2 -22 0 -37 4 -35 5 3 8 4 8 2 0 -2 6
-24 14 -49 12 -40 12 -46 -1 -46 -18 0 -55 56 -46 70 3 5 -4 15 -16 23 -20 15
-41 70 -41 112 0 25 3 26 32 11z m2475 -31 c-3 -7 -5 -2 -5 12 0 14 2 19 5 13
2 -7 2 -19 0 -25z m471 1 c-8 -22 -13 -27 -19 -18 -5 8 -2 20 8 31 22 25 24
23 11 -13z m202 -6 c-11 -21 -20 -42 -20 -48 0 -5 -23 -48 -51 -95 -59 -99
-90 -158 -155 -295 -48 -102 -51 -107 -53 -126 0 -5 -5 -7 -11 -4 -5 3 -10 3
-11 -2 -8 -80 2 -83 30 -9 27 73 108 246 115 246 3 0 -11 -35 -30 -77 -48
-104 -55 -123 -46 -123 4 0 3 -4 -3 -8 -5 -4 -20 -28 -32 -54 -24 -50 -47 -62
-56 -28 -3 11 -2 18 2 15 5 -2 7 16 6 40 -1 38 1 43 14 32 12 -10 13 -9 7 1
-14 22 -13 70 0 65 7 -2 17 11 24 32 7 20 14 34 16 32 3 -3 -4 -28 -15 -58
-23 -60 -20 -81 3 -23 9 22 20 46 26 54 6 8 25 47 43 85 19 39 56 108 82 155
27 47 62 112 78 145 28 57 45 85 53 85 2 0 -5 -17 -16 -37z m-236 -71 c-15
-36 -136 -291 -153 -323 -29 -53 -18 -215 13 -203 21 8 27 -10 12 -31 -13 -18
-14 -18 -20 3 -4 12 -12 20 -17 16 -5 -3 -8 0 -7 7 2 7 -3 13 -11 14 -16 0
-28 25 -13 25 7 0 7 11 1 32 -11 41 -11 47 1 28 7 -11 10 -5 10 23 0 42 26
109 104 267 29 58 58 124 65 147 8 23 18 40 22 37 4 -2 1 -21 -7 -42z m-2739
-12 c3 -5 -3 -10 -14 -10 -12 0 -21 5 -21 10 0 6 6 10 14 10 8 0 18 -4 21 -10z
m1636 -23 c-10 -9 -11 -8 -5 6 3 10 9 15 12 12 3 -3 0 -11 -7 -18z m1573 -7
c-10 -16 -20 -28 -22 -26 -4 5 28 56 35 56 2 0 -4 -13 -13 -30z m-1254 -75 c0
-5 -5 -3 -10 5 -5 8 -10 20 -10 25 0 6 5 3 10 -5 5 -8 10 -19 10 -25z m171
-18 c-10 -9 -11 -8 -5 6 3 10 9 15 12 12 3 -3 0 -11 -7 -18z m700 -5 c-5 -10
-18 -25 -28 -33 -12 -10 -11 -5 6 19 24 35 38 43 22 14z m-2891 -13 c0 -6 -4
-7 -10 -4 -5 3 -10 11 -10 16 0 6 5 7 10 4 6 -3 10 -11 10 -16z m2527 -66 c-2
-16 -4 -3 -4 27 0 30 2 43 4 28 2 -16 2 -40 0 -55z m-355 25 c-6 -6 -7 0 -4
19 5 21 7 23 10 9 2 -10 0 -22 -6 -28z m-244 7 c-3 -3 -9 2 -12 12 -6 14 -5
15 5 6 7 -7 10 -15 7 -18z m1292 17 c0 -5 -7 -17 -15 -28 -14 -18 -14 -17 -4
9 12 27 19 34 19 19z m-1166 -18 c3 -8 2 -12 -4 -9 -6 3 -10 10 -10 16 0 14 7
11 14 -7z m-2030 -9 c3 -8 1 -15 -4 -15 -6 0 -10 7 -10 15 0 8 2 15 4 15 2 0
6 -7 10 -15z m2607 -12 c-12 -20 -14 -14 -5 12 4 9 9 14 11 11 3 -2 0 -13 -6
-23z m196 -38 c-11 -30 -24 -55 -29 -55 -5 0 -6 -4 -3 -10 3 -5 1 -10 -4 -10
-6 0 -11 2 -11 5 0 8 60 125 64 125 2 0 -5 -25 -17 -55z m-657 -12 c-1 -32 -4
-43 -9 -33 -8 14 -4 80 5 80 2 0 4 -21 4 -47z m302 -28 c18 -36 18 -38 2 -20
-18 19 -44 68 -44 83 0 10 17 -15 42 -63z m-974 -44 c41 -75 32 -75 -20 1 -29
41 -36 59 -31 78 6 22 8 23 11 5 3 -11 20 -49 40 -84z m172 76 c0 -7 7 -25 16
-42 15 -30 15 -30 -5 -10 -22 23 -42 83 -22 71 6 -4 11 -13 11 -19z m1423 -2
c-3 -9 -8 -14 -10 -11 -3 3 -2 9 2 15 9 16 15 13 8 -4z m-1310 -102 c-5 -12
-3 -14 7 -8 8 5 11 4 7 -1 -3 -5 8 -25 24 -43 16 -19 29 -36 29 -40 -1 -3 -21
16 -45 44 -27 30 -40 52 -34 56 7 4 6 16 -5 37 -9 17 -16 39 -16 49 1 10 9 -4
20 -30 10 -27 16 -56 13 -64z m187 81 c0 -2 -9 0 -20 6 -11 6 -20 13 -20 16 0
2 9 0 20 -6 11 -6 20 -13 20 -16z m1405 6 c-10 -11 -22 -20 -28 -20 -5 0 1 9
14 20 31 25 37 25 14 0z m-1996 -22 c6 -18 7 -28 2 -23 -10 12 -25 55 -18 55
3 0 10 -15 16 -32z m243 7 c-2 -14 -6 -25 -8 -25 -2 0 -4 11 -4 25 0 14 4 25
9 25 4 0 6 -11 3 -25z m1437 -69 c-28 -77 -33 -67 -6 12 12 34 23 58 25 53 1
-4 -7 -34 -19 -65z m108 46 c-7 -16 -20 -39 -29 -53 -17 -23 -17 -22 -1 16 17
39 32 65 39 65 2 0 -2 -13 -9 -28z m-1136 1 c13 -16 12 -17 -3 -4 -10 7 -18
15 -18 17 0 8 8 3 21 -13z m-461 -55 c0 -23 -2 -39 -5 -37 -8 9 -12 79 -4 79
5 0 9 -19 9 -42z m640 -55 c0 -4 -11 12 -25 36 -14 23 -25 48 -25 54 0 7 11
-9 25 -35 14 -26 25 -51 25 -55z m17 45 c-2 -13 -4 -5 -4 17 -1 22 1 32 4 23
2 -10 2 -28 0 -40z m1058 42 c-7 -11 -65 -43 -65 -36 0 4 62 45 68 46 2 0 0
-5 -3 -10z m-1155 -20 c0 -5 -2 -10 -4 -10 -3 0 -8 5 -11 10 -3 6 -1 10 4 10
6 0 11 -4 11 -10z m197 -22 c-3 -7 -5 -2 -5 12 0 14 2 19 5 13 2 -7 2 -19 0
-25z m-993 -37 c-2 -3 -12 3 -22 13 -16 17 -16 18 5 5 12 -7 20 -15 17 -18z
m110 13 c3 -8 2 -12 -4 -9 -6 3 -10 10 -10 16 0 14 7 11 14 -7z m1044 -4 c-7
-10 -14 -17 -17 -15 -4 4 18 35 25 35 2 0 -1 -9 -8 -20z m619 -8 c-10 -10 -17
-24 -17 -30 0 -6 -7 -17 -15 -26 -26 -26 -47 -84 -32 -89 9 -4 9 -6 0 -6 -6
-1 -14 3 -17 7 -10 16 73 162 92 162 3 0 -2 -8 -11 -18z m-520 -39 c-3 -10 -5
-4 -5 12 0 17 2 24 5 18 2 -7 2 -21 0 -30z m567 29 c3 -5 -11 -24 -30 -43 -34
-33 -35 -33 -23 -7 6 15 15 25 20 23 4 -3 10 4 14 15 7 22 11 24 19 12z
m-2224 -58 c30 -31 46 -52 34 -46 -29 15 -107 102 -91 102 1 0 27 -25 57 -56z
m720 12 c0 -6 -7 -2 -15 8 -8 11 -15 25 -15 30 0 6 7 2 15 -8 8 -11 15 -25 15
-30z m-643 12 c-3 -8 -6 -5 -6 6 -1 11 2 17 5 13 3 -3 4 -12 1 -19z m1266 -22
c2 3 7 -2 10 -10 8 -20 -40 -14 -61 9 -16 17 -16 17 1 12 15 -6 16 -4 7 16
-10 19 -8 18 13 -5 14 -15 27 -25 30 -22z m216 27 c-6 -7 -17 -13 -23 -12 -7
0 -6 2 2 6 6 2 10 8 8 12 -3 4 1 8 9 8 11 0 12 -4 4 -14z m516 -2 c-3 -5 -40
-30 -83 -55 -42 -25 -66 -37 -52 -25 20 17 126 84 138 88 2 1 1 -3 -3 -8z
m-2326 -200 l46 -43 -41 31 c-23 17 -84 72 -135 122 l-94 91 89 -79 c48 -43
109 -98 135 -122z m1095 141 c19 -29 30 -50 25 -46 -15 9 -69 85 -69 97 0 13
2 11 44 -51z m-270 29 c17 -19 17 -19 0 -17 -9 2 -18 10 -20 19 -3 21 -1 21
20 -2z m906 -14 c0 -18 2 -19 10 -7 5 8 10 11 10 6 0 -5 8 -2 18 5 14 11 15
11 5 0 -6 -7 -9 -21 -6 -30 4 -12 2 -13 -4 -3 -5 7 -17 10 -26 6 -11 -4 -17
-1 -17 9 0 9 -3 23 -7 33 -4 12 -3 15 5 10 7 -4 12 -17 12 -29z m601 16 c-14
-26 -71 -79 -71 -66 0 7 11 20 25 31 13 11 21 23 17 27 -4 5 -2 5 4 2 7 -4 14
0 18 8 3 8 8 15 11 15 3 0 1 -8 -4 -17z m-1573 -33 c11 -22 16 -40 11 -40 -10
0 -19 14 -29 50 -12 41 -6 38 18 -10z m1268 8 c-9 -12 -16 -19 -16 -15 0 11
24 47 28 42 2 -2 -3 -14 -12 -27z m-712 -46 c4 -7 4 -18 -1 -24 -8 -14 -21 28
-21 72 0 21 1 20 7 -6 4 -17 11 -36 15 -42z m-703 36 c11 -21 11 -22 -4 -9
-10 7 -17 17 -17 22 0 15 9 10 21 -13z m634 12 c4 -6 11 -7 17 -4 7 4 8 2 4
-4 -4 -7 -3 -12 2 -12 6 0 13 -8 16 -17 5 -13 0 -11 -21 7 -15 14 -32 28 -37
32 -6 5 -5 8 1 8 7 0 15 -5 18 -10z m606 -17 c-12 -20 -14 -14 -5 12 4 9 9 14
11 11 3 -2 0 -13 -6 -23z m-826 -13 c10 -11 16 -20 13 -20 -3 0 -13 9 -23 20
-10 11 -16 20 -13 20 3 0 13 -9 23 -20z m-930 -15 c6 -1 9 -6 8 -12 -1 -6 37
-49 85 -94 60 -57 73 -73 41 -51 -55 40 -204 190 -169 171 14 -7 30 -14 35
-14z m166 8 c13 -16 12 -17 -3 -4 -10 7 -18 15 -18 17 0 8 8 3 21 -13z m1429
13 c0 -2 -7 -7 -16 -10 -8 -3 -12 -2 -9 4 6 10 25 14 25 6z m125 -27 c-3 -12
-7 -24 -10 -27 -3 -3 -3 5 -1 19 6 30 5 29 10 29 3 0 3 -10 1 -21z m-795 -18
l12 -23 -25 18 c-16 12 -21 21 -14 26 6 4 12 6 13 5 1 -1 7 -13 14 -26z m594
-4 c4 -19 3 -26 -4 -22 -5 3 -10 18 -10 32 0 32 5 28 14 -10z m149 13 c-3 -12
-8 -19 -11 -16 -5 6 5 36 12 36 2 0 2 -9 -1 -20z m-2072 -7 c13 -16 12 -17 -3
-4 -10 7 -18 15 -18 17 0 8 8 3 21 -13z m2546 -1 c-10 -10 -17 -26 -17 -35 0
-11 -8 -17 -22 -16 -17 1 -19 2 -5 6 9 2 17 13 17 23 0 11 8 24 18 29 25 15
27 13 9 -7z m-977 -12 c0 -5 -4 -10 -10 -10 -5 0 -10 5 -10 10 0 6 5 10 10 10
6 0 10 -4 10 -10z m401 -33 c-8 -8 -11 -8 -11 0 0 6 -3 20 -7 30 -7 17 -6 17
11 0 14 -14 16 -21 7 -30z m705 29 c16 -16 4 -29 -19 -20 -17 6 -32 -12 -17
-21 14 -8 13 -25 -2 -25 -6 0 -19 -7 -29 -16 -22 -20 -46 -9 -28 12 6 7 14 12
18 10 12 -8 34 11 26 23 -4 8 -11 9 -19 2 -7 -6 -17 -6 -26 -1 -12 8 -10 10 8
10 12 0 22 5 22 11 0 5 4 8 9 5 5 -3 11 1 15 9 7 19 23 19 42 1z m-1116 -87
c0 -5 -5 -9 -11 -9 -5 0 -8 4 -4 9 3 6 -14 22 -39 36 -24 14 -47 32 -50 41 -3
8 19 -4 49 -27 30 -23 55 -45 55 -50z m45 81 c3 -5 1 -10 -4 -10 -6 0 -11 5
-11 10 0 6 2 10 4 10 3 0 8 -4 11 -10z m103 -11 c12 -19 11 -19 -8 -9 -11 6
-20 15 -20 20 0 17 15 11 28 -11z m149 -1 c-3 -8 -6 -5 -6 6 -1 11 2 17 5 13
3 -3 4 -12 1 -19z m403 18 c0 -11 -19 -15 -25 -6 -3 5 1 10 9 10 9 0 16 -2 16
-4z m109 -10 c9 -11 9 -16 -1 -22 -7 -4 -10 -4 -6 1 4 4 3 14 -3 22 -6 7 -9
13 -6 13 2 0 10 -6 16 -14z m141 -2 c0 -2 -9 -4 -21 -4 -11 0 -18 4 -14 10 5
8 35 3 35 -6z m-1670 -16 c0 -13 -23 -5 -28 10 -2 7 2 10 12 6 9 -3 16 -11 16
-16z m1235 12 c3 -5 1 -10 -4 -10 -6 0 -11 5 -11 10 0 6 2 10 4 10 3 0 8 -4
11 -10z m-168 -37 c-3 -10 -5 -4 -5 12 0 17 2 24 5 18 2 -7 2 -21 0 -30z m214
22 c7 19 8 19 8 -2 1 -17 5 -21 18 -16 11 4 14 3 9 -5 -4 -8 6 -20 28 -33 20
-12 36 -24 36 -27 0 -3 -3 -2 -7 1 -3 4 -13 1 -21 -6 -10 -7 -13 -8 -9 -1 9
15 -10 30 -45 39 -16 4 -26 11 -23 15 3 5 -4 11 -15 15 -21 7 -25 16 -13 29 4
3 11 -1 17 -11 9 -16 10 -16 17 2z m-1343 -113 c8 -6 33 -26 58 -43 57 -39 56
-44 -3 -12 -79 43 -183 132 -183 155 0 8 80 -54 128 -100z m842 92 c0 -8 -5
-12 -10 -9 -6 4 -8 11 -5 16 9 14 15 11 15 -7z m253 -50 c4 -4 16 2 27 14 26
28 34 28 19 1 -8 -17 -8 -20 1 -14 8 5 11 3 8 -6 -3 -8 -11 -13 -17 -11 -7 1
-10 -2 -6 -8 3 -5 1 -18 -4 -27 -9 -16 -10 -15 -11 6 0 19 -4 23 -24 19 -18
-4 -23 -1 -19 9 3 8 2 13 -3 12 -28 -5 -35 1 -20 17 9 8 16 25 17 37 0 18 3
16 12 -10 7 -17 15 -35 20 -39z m67 62 c0 -3 -4 -8 -10 -11 -5 -3 -10 -1 -10
4 0 6 5 11 10 11 6 0 10 -2 10 -4z m146 -17 c19 -22 19 -22 -3 -10 -13 6 -23
16 -23 21 0 15 5 12 26 -11z m124 7 c0 -2 -8 -10 -17 -17 -16 -13 -17 -12 -4
4 13 16 21 21 21 13z m-794 -27 c19 -22 19 -22 -3 -10 -13 6 -23 16 -23 21 0
15 5 12 26 -11z m248 -51 c1 -14 -2 -24 -6 -22 -3 2 -9 -2 -12 -8 -3 -7 -4 0
-2 17 4 28 3 29 -11 10 -15 -20 -15 -20 -10 0 4 11 9 33 13 49 l7 30 10 -25
c6 -13 11 -36 11 -51z m44 49 c0 -7 4 -23 8 -37 10 -36 -11 -13 -24 27 -8 25
-8 31 2 27 7 -3 13 -10 14 -17z m592 9 c0 -2 -8 -10 -17 -17 -16 -13 -17 -12
-4 4 13 16 21 21 21 13z m192 -59 c-18 -18 -30 -36 -27 -39 3 -3 -1 -11 -10
-18 -20 -17 -1 -54 23 -45 14 5 15 4 4 -7 -11 -11 -18 -8 -38 17 l-24 30 0
-28 c0 -16 4 -26 9 -23 5 3 11 0 14 -8 3 -8 -2 -16 -14 -19 -13 -4 -19 0 -20
11 -3 38 -5 43 -17 51 -10 6 -8 10 10 14 12 3 43 27 68 52 24 25 46 45 49 45
3 0 -10 -15 -27 -33z m33 -7 c-16 -16 -33 -30 -39 -30 -9 0 53 59 63 60 3 0
-8 -13 -24 -30z m85 20 c-8 -5 -19 -10 -25 -10 -5 0 -3 5 5 10 8 5 20 10 25
10 6 0 3 -5 -5 -10z m335 -26 c22 -4 45 -9 50 -10 6 -1 12 -3 15 -4 3 -1 13
-3 23 -5 20 -4 87 -34 87 -39 0 -2 -23 1 -51 7 -35 7 -53 7 -61 -1 -8 -8 -4
-10 13 -6 22 4 22 3 4 -5 -11 -5 -26 -10 -34 -10 -11 -1 -11 2 0 15 16 19 6
27 -68 51 -29 9 -53 20 -53 25 0 5 8 5 18 0 9 -5 35 -13 57 -18z m-856 -24 c0
-10 -2 -11 -6 -2 -2 6 -9 10 -14 6 -5 -3 -9 1 -9 8 0 9 -3 9 -10 -2 -11 -17
-13 -10 -4 14 5 12 9 13 25 3 10 -6 19 -19 18 -27z m-869 9 c0 -6 -4 -7 -10
-4 -5 3 -10 11 -10 16 0 6 5 7 10 4 6 -3 10 -11 10 -16z m324 13 c2 -4 1 -27
-4 -50 -4 -24 -4 -40 0 -35 5 4 10 19 13 33 3 14 4 6 4 -17 -1 -24 -3 -43 -5
-43 -2 0 -15 9 -29 20 -21 16 -22 20 -8 20 15 0 17 6 12 40 -5 36 4 53 17 32z
m194 -10 c2 -7 -5 -12 -17 -12 -20 0 -35 13 -25 23 9 9 38 1 42 -11z m137 8
c3 -5 1 -10 -4 -10 -6 0 -11 5 -11 10 0 6 2 10 4 10 3 0 8 -4 11 -10z m-489
-8 c-3 -5 9 -16 25 -26 17 -10 28 -20 25 -23 -8 -8 -67 38 -61 48 4 5 8 9 11
9 3 0 3 -4 0 -8z m104 -2 c13 -8 13 -10 -2 -10 -9 0 -20 5 -23 10 -8 13 5 13
25 0z m-530 -20 c14 -10 22 -21 19 -24 -3 -4 -19 5 -35 19 -34 29 -21 34 16 5z
m167 0 c-1 -21 -10 -18 -13 5 -1 8 2 15 6 15 5 0 8 -9 7 -20z m795 -5 c3 -13
1 -22 -3 -19 -9 5 -13 44 -5 44 2 0 6 -11 8 -25z m373 15 c8 -13 -5 -13 -25 0
-13 8 -13 10 2 10 9 0 20 -4 23 -10z m256 -7 c13 -16 12 -17 -3 -4 -17 13 -22
21 -14 21 2 0 10 -8 17 -17z m-597 -8 c-4 -8 -8 -15 -10 -15 -2 0 -4 7 -4 15
0 8 4 15 10 15 5 0 7 -7 4 -15z m166 -1 c0 -8 -5 -12 -10 -9 -13 8 -2 -43 14
-65 6 -9 1 -7 -11 3 -22 19 -27 52 -10 75 13 16 17 15 17 -4z m-613 -16 c-3
-8 -6 -5 -6 6 -1 11 2 17 5 13 3 -3 4 -12 1 -19z m558 11 c-4 -6 -9 -8 -13 -5
-3 3 -11 -2 -19 -12 -10 -13 -13 -14 -11 -2 2 8 8 18 13 22 15 12 37 9 30 -3z
m-245 -3 c0 -11 -19 -15 -25 -6 -3 5 1 10 9 10 9 0 16 -2 16 -4z m64 -21 c-3
-20 -1 -23 12 -18 12 4 15 3 10 -5 -4 -7 -17 -12 -28 -12 -12 0 -18 3 -15 7 4
3 1 13 -6 21 -9 13 -9 14 1 8 7 -4 12 -1 12 8 0 9 4 16 9 16 5 0 8 -11 5 -25z
m110 -2 c-17 -12 -17 -13 0 -13 9 0 15 -4 12 -9 -4 -5 0 -12 6 -14 8 -4 9 -6
2 -6 -13 -1 -37 25 -40 43 -1 6 7 12 18 12 18 0 18 -1 2 -13z m-49 -12 c3 -5
1 -12 -4 -15 -5 -3 -11 1 -15 9 -6 16 9 21 19 6z m-885 -27 c0 -2 -9 0 -20 6
-11 6 -20 13 -20 16 0 2 9 0 20 -6 11 -6 20 -13 20 -16z m649 -16 c1 -5 -3 -8
-9 -8 -5 0 -10 12 -9 28 0 24 1 25 9 7 5 -11 9 -23 9 -27z m1628 36 c-3 -3
-12 -4 -19 -1 -8 3 -5 6 6 6 11 1 17 -2 13 -5z m78 -4 c-3 -5 -18 -9 -33 -9
l-27 1 30 8 c17 4 31 8 33 9 2 0 0 -3 -3 -9z m-1825 -15 c-7 -9 -15 -13 -19
-10 -3 3 1 10 9 15 21 14 24 12 10 -5z m1343 8 c-7 -2 -21 -2 -30 0 -10 3 -4
5 12 5 17 0 24 -2 18 -5z m382 -14 c22 -6 15 -7 -25 -3 -30 4 -62 10 -70 15
-17 9 49 1 95 -12z m-1575 -5 c0 -8 -5 -12 -10 -9 -6 4 -8 11 -5 16 9 14 15
11 15 -7z m1436 -2 c-27 -2 -52 0 -57 5 -4 4 18 6 49 3 l57 -5 -49 -3z m-456
-8 c-25 -7 -49 -13 -55 -13 -18 1 59 27 80 28 11 0 0 -7 -25 -15z m270 13 c-7
-7 -88 -12 -94 -6 -3 3 18 7 46 8 29 1 50 0 48 -2z m-445 -14 c12 6 16 6 11
-1 -3 -6 0 -13 6 -16 7 -3 -6 -4 -29 -2 -28 3 -46 -1 -54 -10 -6 -8 -17 -14
-23 -14 -6 0 -3 6 6 14 13 9 14 16 6 24 -7 7 -1 8 24 3 21 -5 43 -4 53 2z
m880 -3 c3 -6 -1 -7 -9 -4 -18 7 -21 14 -7 14 6 0 13 -4 16 -10z m-1015 -27
c0 -13 -3 -13 -15 -3 -8 7 -15 16 -15 21 0 5 7 6 15 3 8 -4 15 -13 15 -21z
m407 21 c-3 -3 -12 -4 -19 -1 -8 3 -5 6 6 6 11 1 17 -2 13 -5z m923 -1 c0 -5
-12 -9 -27 -10 -19 -1 -22 1 -12 8 17 11 39 12 39 2z m-1733 -25 c-3 -8 -6 -5
-6 6 -1 11 2 17 5 13 3 -3 4 -12 1 -19z m718 12 c-3 -5 -14 -10 -23 -9 -14 0
-13 2 3 9 27 11 27 11 20 0z m42 4 c-3 -3 -12 -4 -19 -1 -8 3 -5 6 6 6 11 1
17 -2 13 -5z m-653 -23 c-10 -10 -21 -16 -24 -14 -3 3 4 11 14 19 28 20 33 17
10 -5z m1673 13 c-3 -3 -12 -4 -19 -1 -8 3 -5 6 6 6 11 1 17 -2 13 -5z m-1344
-18 c4 -10 1 -13 -9 -9 -7 3 -14 9 -14 14 0 14 17 10 23 -5z m1400 7 c-7 -2
-19 -2 -25 0 -7 3 -2 5 12 5 14 0 19 -2 13 -5z m-1933 -7 c0 -2 -7 -9 -15 -16
-13 -11 -14 -10 -9 4 5 14 24 23 24 12z m305 -5 c-3 -5 -21 -15 -40 -21 -26
-8 -32 -15 -28 -28 6 -15 5 -15 -11 1 -21 21 -23 19 29 39 48 19 58 21 50 9z
m1688 2 c-7 -2 -21 -2 -30 0 -10 3 -4 5 12 5 17 0 24 -2 18 -5z m-2418 -21
c-3 -3 -11 0 -18 7 -9 10 -8 11 6 5 10 -3 15 -9 12 -12z m605 -7 c5 3 11 1 14
-4 3 -5 -5 -11 -17 -13 -21 -4 -23 -1 -18 21 4 19 6 21 9 8 2 -9 7 -15 12 -12z
m263 -7 c-8 -46 -13 -48 -13 -5 0 21 4 37 10 37 5 0 7 -14 3 -32z m51 11 c-9
-15 -34 -10 -28 5 3 8 12 12 20 9 8 -3 11 -9 8 -14z m1443 15 c-3 -3 -12 -4
-19 -1 -8 3 -5 6 6 6 11 1 17 -2 13 -5z m-2244 -19 c-3 -9 -8 -14 -10 -11 -3
3 -2 9 2 15 9 16 15 13 8 -4z m364 9 c-3 -4 -2 -16 4 -28 10 -20 10 -20 -5 -2
-19 24 -20 36 -4 36 6 0 8 -3 5 -6z m363 2 c0 -9 -30 -14 -35 -6 -4 6 3 10 14
10 12 0 21 -2 21 -4z m1563 -3 c-7 -2 -19 -2 -25 0 -7 3 -2 5 12 5 14 0 19 -2
13 -5z m102 -9 c17 4 24 3 20 -4 -4 -6 4 -10 19 -10 14 0 28 -5 31 -10 5 -8
-10 -9 -47 -4 -29 4 -54 11 -56 15 -2 5 -16 9 -30 10 l-27 1 25 7 c14 4 28 3
31 -2 4 -5 19 -7 34 -3z m-1484 -10 c-18 -7 -38 -11 -43 -8 -15 10 8 21 45 22
l32 1 -34 -15z m142 9 c-7 -2 -19 -2 -25 0 -7 3 -2 5 12 5 14 0 19 -2 13 -5z
m-1228 -13 c3 -5 1 -10 -4 -10 -6 0 -11 5 -11 10 0 6 2 10 4 10 3 0 8 -4 11
-10z m430 0 c3 -5 1 -10 -4 -10 -6 0 -11 5 -11 10 0 6 2 10 4 10 3 0 8 -4 11
-10z m142 -12 c-3 -8 -6 -5 -6 6 -1 11 2 17 5 13 3 -3 4 -12 1 -19z m291 17
c-3 -3 -20 -10 -38 -15 -19 -5 -29 -6 -24 -1 12 12 74 27 62 16z m138 -4 c-4
-5 -1 -11 5 -13 6 -2 9 -13 7 -23 -5 -18 -6 -18 -15 5 -10 23 -8 40 3 40 3 0
3 -4 0 -9z m-36 -20 c-7 -13 -7 -22 0 -26 5 -3 10 -1 10 5 0 6 5 8 10 5 18
-11 11 -24 -11 -20 -12 3 -24 6 -26 9 -5 5 15 46 23 46 2 0 0 -9 -6 -19z
m1785 -7 c6 -2 -8 -1 -30 2 -22 3 -44 10 -49 14 -8 8 53 -4 79 -16z m-2140 -4
c3 -6 -1 -7 -9 -4 -18 7 -21 14 -7 14 6 0 13 -4 16 -10z m73 -14 c21 3 22 2 7
-4 -13 -4 -20 -15 -19 -30 1 -23 -8 -22 -12 1 -1 7 -4 19 -6 27 -3 8 -3 12 -1
9 2 -3 16 -5 31 -3z m62 4 c12 -8 11 -10 -7 -10 -13 0 -23 5 -23 10 0 13 11
13 30 0z m708 3 c-10 -2 -26 -2 -35 0 -10 3 -2 5 17 5 19 0 27 -2 18 -5z
m1362 -3 c13 -9 13 -10 0 -9 -8 0 -24 4 -35 9 l-20 9 20 0 c11 0 27 -4 35 -9z
m-1272 -7 c-10 -2 -26 -2 -35 0 -10 3 -2 5 17 5 19 0 27 -2 18 -5z m-695 -10
c-7 -2 -19 -2 -25 0 -7 3 -2 5 12 5 14 0 19 -2 13 -5z m44 1 c-3 -3 -12 -4
-19 -1 -8 3 -5 6 6 6 11 1 17 -2 13 -5z m821 -1 c-10 -2 -28 -2 -40 0 -13 2
-5 4 17 4 22 1 32 -1 23 -4z m1167 -3 c13 -5 14 -9 5 -9 -8 0 -24 4 -35 9 -13
5 -14 9 -5 9 8 0 24 -4 35 -9z m-2594 -9 c-9 -6 -10 -11 -2 -15 6 -4 11 -11
11 -17 0 -5 -9 0 -20 11 -25 25 -25 25 2 27 16 2 19 0 9 -6z m749 -7 c0 -2 -7
-4 -15 -4 -8 0 -15 4 -15 10 0 5 7 7 15 4 8 -4 15 -8 15 -10z m287 10 c-3 -3
-12 -4 -19 -1 -8 3 -5 6 6 6 11 1 17 -2 13 -5z m217 -5 c-6 -10 -180 -7 -189
3 -4 3 39 6 94 6 58 0 99 -4 95 -9z m51 1 c-28 -12 -37 -12 -30 0 3 6 16 10
28 9 21 0 21 -1 2 -9z m222 4 c-3 -3 -12 -4 -19 -1 -8 3 -5 6 6 6 11 1 17 -2
13 -5z m-1619 -40 c-4 -3 -12 5 -18 18 -12 22 -12 22 6 6 10 -10 15 -20 12
-24z m622 20 c0 -2 -12 -4 -27 -4 -21 0 -24 3 -14 9 13 8 41 5 41 -5z m270 12
c0 -2 -7 -7 -16 -10 -8 -3 -12 -2 -9 4 6 10 25 14 25 6z m150 -12 c0 -2 -24
-3 -52 -3 -48 2 -49 2 -18 8 33 6 70 3 70 -5z m518 -5 c162 0 160 0 130 -9
-27 -8 -92 -6 -228 6 -58 6 -68 9 -45 14 17 4 38 3 48 -2 9 -5 52 -9 95 -9z
m-21 15 c-3 -3 -12 -4 -19 -1 -8 3 -5 6 6 6 11 1 17 -2 13 -5z m1200 0 c-3 -3
-12 -4 -19 -1 -8 3 -5 6 6 6 11 1 17 -2 13 -5z m-3347 -14 c0 -12 -8 -12 -35
0 -18 8 -17 9 8 9 15 1 27 -3 27 -9z m3400 0 c18 -12 2 -12 -25 0 -13 6 -15 9
-5 9 8 0 22 -4 30 -9z m-872 -7 c-16 -2 -40 -2 -55 0 -16 2 -3 4 27 4 30 0 43
-2 28 -4z m59 -9 c-3 -3 -12 -4 -19 -1 -8 3 -5 6 6 6 11 1 17 -2 13 -5z
m-1187 -8 c0 -2 -6 -9 -13 -15 -10 -8 -14 -7 -14 4 0 8 6 15 14 15 7 0 13 -2
13 -4z m958 -3 c-10 -2 -26 -2 -35 0 -10 3 -2 5 17 5 19 0 27 -2 18 -5z m305
0 c-7 -2 -19 -2 -25 0 -7 3 -2 5 12 5 14 0 19 -2 13 -5z m-1803 -13 c0 -5 -5
-10 -11 -10 -5 0 -7 5 -4 10 3 6 8 10 11 10 2 0 4 -4 4 -10z m65 0 c-3 -5 -18
-10 -33 -9 l-27 1 25 8 c35 11 42 11 35 0z m342 -12 c-3 -8 -6 -5 -6 6 -1 11
2 17 5 13 3 -3 4 -12 1 -19z m-526 -6 c-7 -2 -18 1 -23 6 -8 8 -4 9 13 5 13
-4 18 -8 10 -11z m2082 11 c-7 -2 -21 -2 -30 0 -10 3 -4 5 12 5 17 0 24 -2 18
-5z m-3599 -19 c3 -9 6 -36 6 -60 0 -36 -3 -44 -18 -44 -10 0 -28 14 -40 30
-18 24 -20 30 -7 30 9 0 18 -7 21 -15 4 -8 12 -15 20 -15 17 0 17 2 -1 47 -18
43 -18 43 -1 43 8 0 17 -7 20 -16z m2131 6 c-3 -5 -12 -10 -18 -10 -7 0 -6 4
3 10 19 12 23 12 15 0z m312 4 c-3 -3 -12 -4 -19 -1 -8 3 -5 6 6 6 11 1 17 -2
13 -5z m-1717 -8 c0 -3 -4 -8 -10 -11 -5 -3 -10 -1 -10 4 0 6 5 11 10 11 6 0
10 -2 10 -4z m3044 -16 c44 -10 119 -24 165 -29 100 -13 122 -24 30 -15 -66 6
-311 52 -318 60 -10 10 47 3 123 -16z m-3364 0 c0 -5 -2 -10 -4 -10 -3 0 -8 5
-11 10 -3 6 -1 10 4 10 6 0 11 -4 11 -10z m70 -35 c0 -11 -19 -4 -41 15 l-24
21 33 -16 c17 -8 32 -18 32 -20z m1270 25 c-8 -5 -26 -9 -40 -9 -23 1 -23 2 5
9 43 11 52 11 35 0z m2303 3 c-7 -2 -19 -2 -25 0 -7 3 -2 5 12 5 14 0 19 -2
13 -5z m-2207 -29 c1 -9 0 -13 -4 -10 -3 4 -7 14 -8 22 -1 9 0 13 4 10 3 -4 7
-14 8 -22z m117 19 c-7 -2 -19 -2 -25 0 -7 3 -2 5 12 5 14 0 19 -2 13 -5z m67
-3 c0 -5 -4 -10 -10 -10 -5 0 -10 5 -10 10 0 6 5 10 10 10 6 0 10 -4 10 -10z
m30 6 c0 -3 -4 -8 -10 -11 -5 -3 -10 -1 -10 4 0 6 5 11 10 11 6 0 10 -2 10 -4z
m60 -6 c13 -9 13 -10 0 -10 -8 0 -22 5 -30 10 -13 9 -13 10 0 10 8 0 22 -5 30
-10z m-775 -30 c3 -5 2 -10 -4 -10 -5 0 -13 5 -16 10 -3 6 -2 10 4 10 5 0 13
-4 16 -10z m738 -7 c-6 -15 -19 -17 -27 -4 -7 11 0 18 18 18 8 0 12 -6 9 -14z
m840 10 c-23 -2 -64 -2 -90 0 -26 2 -7 3 42 3 50 0 71 -1 48 -3z m-1168 -13
c-3 -5 -12 -10 -18 -10 -7 0 -6 4 3 10 19 12 23 12 15 0z m1383 3 c-10 -2 -28
-2 -40 0 -13 2 -5 4 17 4 22 1 32 -1 23 -4z m65 0 c-7 -2 -21 -2 -30 0 -10 3
-4 5 12 5 17 0 24 -2 18 -5z m-915 -10 c-10 -2 -26 -2 -35 0 -10 3 -2 5 17 5
19 0 27 -2 18 -5z m-963 -14 c11 -16 1 -19 -13 -3 -7 8 -8 14 -3 14 5 0 13 -5
16 -11z m545 1 c0 -5 -5 -10 -11 -10 -5 0 -7 5 -4 10 3 6 8 10 11 10 2 0 4 -4
4 -10z m587 4 c-3 -3 -12 -4 -19 -1 -8 3 -5 6 6 6 11 1 17 -2 13 -5z m-887
-44 c0 -5 -2 -10 -4 -10 -3 0 -8 5 -11 10 -3 6 -1 10 4 10 6 0 11 -4 11 -10z
m-503 -16 c-3 -3 -12 -4 -19 -1 -8 3 -5 6 6 6 11 1 17 -2 13 -5z m368 -14 c-3
-5 -11 -10 -16 -10 -6 0 -7 5 -4 10 3 6 11 10 16 10 6 0 7 -4 4 -10z m-1480
-23 c16 -5 15 -5 -4 -4 -14 1 -26 9 -28 17 -3 10 -2 11 4 4 4 -7 17 -14 28
-17z m1808 16 c-20 -7 -15 -37 7 -50 10 -7 24 -23 30 -35 11 -23 11 -23 -7 -3
-10 11 -28 27 -39 35 -17 12 -19 20 -13 38 5 12 14 22 21 21 10 0 10 -2 1 -6z
m393 -17 c1 -19 -2 -23 -19 -18 -12 3 -16 7 -9 10 6 2 12 10 12 18 0 24 15 15
16 -10z m-2023 -19 c12 -19 14 -26 5 -25 -16 4 -19 -50 -4 -74 12 -20 9 -25
-24 -30 -23 -3 -25 0 -26 37 -1 22 5 47 13 56 12 14 12 17 -2 23 -9 3 -14 10
-10 15 3 6 12 8 20 4 11 -4 14 0 9 13 -9 23 -4 18 19 -19z m2170 26 c-7 -2
-21 -2 -30 0 -10 3 -4 5 12 5 17 0 24 -2 18 -5z m-1530 -30 c-7 -2 -19 -2 -25
0 -7 3 -2 5 12 5 14 0 19 -2 13 -5z m-46 -9 c-3 -3 -12 -4 -19 -1 -8 3 -5 6 6
6 11 1 17 -2 13 -5z m1916 -1 c-7 -2 -21 -2 -30 0 -10 3 -4 5 12 5 17 0 24 -2
18 -5z m-541 -48 c-6 -12 -11 -14 -16 -6 -4 6 -2 11 4 11 8 0 7 7 -1 23 -11
21 -10 21 6 6 13 -12 15 -22 7 -34z m-797 15 c3 -5 1 -10 -4 -10 -6 0 -11 5
-11 10 0 6 2 10 4 10 3 0 8 -4 11 -10z m660 1 c3 -5 0 -13 -6 -17 -8 -5 -9 -3
-4 6 6 10 4 12 -9 7 -10 -4 -15 -3 -11 3 8 13 22 13 30 1z m-1555 -16 c-10
-12 -60 -18 -60 -7 0 4 44 21 59 21 11 1 11 -2 1 -14z m-70 -5 c0 -5 -4 -10
-9 -10 -6 0 -13 5 -16 10 -3 6 1 10 9 10 9 0 16 -4 16 -10z m965 -18 c-3 -3
-11 0 -18 7 -9 10 -8 11 6 5 10 -3 15 -9 12 -12z m-1138 -24 c-3 -7 -5 -2 -5
12 0 14 2 19 5 13 2 -7 2 -19 0 -25z m48 12 c3 -5 1 -10 -4 -10 -6 0 -11 5
-11 10 0 6 2 10 4 10 3 0 8 -4 11 -10z m1260 -23 c6 -7 3 -7 -10 -2 -11 4 -25
8 -32 8 -7 0 -14 6 -17 13 -4 11 0 11 22 2 15 -7 32 -16 37 -21z m138 13 c-3
-12 -8 -19 -11 -16 -5 6 5 36 12 36 2 0 2 -9 -1 -20z m-958 1 c-3 -5 5 -12 17
-14 16 -3 14 -4 -7 -4 -17 1 -36 -2 -42 -6 -13 -8 -43 1 -43 14 0 4 7 5 17 2
11 -4 14 -3 9 5 -5 8 3 12 24 12 17 0 29 -4 25 -9z m-89 -12 c5 -9 -1 -10 -22
-5 -21 5 -25 4 -14 -4 8 -5 29 -10 45 -10 27 -1 28 -2 13 -14 -17 -13 -26 -32
-10 -22 4 2 52 12 107 21 55 9 109 19 120 21 15 4 16 3 6 -4 -7 -5 -60 -20
-117 -33 -83 -18 -101 -25 -92 -36 13 -16 8 -16 -27 -3 -18 7 -33 7 -45 0 -13
-7 -21 -7 -26 2 -4 6 -3 8 3 5 6 -4 19 0 29 8 16 13 17 16 4 25 -21 14 -33 12
-24 -2 4 -7 -2 -5 -13 5 -22 19 -69 21 -148 7 -107 -20 -135 -22 -135 -14 0
10 130 36 196 39 23 1 47 6 53 10 7 4 18 4 26 1 8 -3 17 -1 20 4 8 14 42 12
51 -1z m237 4 c-7 -2 -19 -2 -25 0 -7 3 -2 5 12 5 14 0 19 -2 13 -5z m517 -3
c13 -8 13 -10 -2 -10 -9 0 -20 5 -23 10 -8 13 5 13 25 0z m337 -12 c-3 -8 -6
-5 -6 6 -1 11 2 17 5 13 3 -3 4 -12 1 -19z m-277 8 c0 -3 -4 -8 -10 -11 -5 -3
-10 -1 -10 4 0 6 5 11 10 11 6 0 10 -2 10 -4z m1083 -3 c-7 -2 -19 -2 -25 0
-7 3 -2 5 12 5 14 0 19 -2 13 -5z m-2289 -59 c7 -27 -7 -54 -21 -40 -4 4 -1
11 6 15 11 7 11 10 0 17 -7 4 -14 3 -17 -4 -6 -18 -32 -15 -32 3 0 13 28 32
51 34 4 1 10 -11 13 -25z m235 12 c-12 -10 -60 -16 -54 -6 3 5 18 10 32 10 15
0 24 -2 22 -4z m-76 -13 c-7 -2 -19 -2 -25 0 -7 3 -2 5 12 5 14 0 19 -2 13 -5z
m1568 -10 c13 -16 12 -17 -3 -4 -10 7 -18 15 -18 17 0 8 8 3 21 -13z m496 11
c-3 -3 -12 -4 -19 -1 -8 3 -5 6 6 6 11 1 17 -2 13 -5z m1523 -18 c0 -2 -9 -6
-20 -9 -11 -3 -20 -1 -20 4 0 5 9 9 20 9 11 0 20 -2 20 -4z m-3776 -31 c3 -10
-1 -15 -14 -15 -23 0 -35 16 -18 23 21 9 26 8 32 -8z m416 3 c0 -7 -32 -26
-70 -41 -55 -23 -76 -27 -98 -19 -25 8 -19 11 68 40 52 17 96 31 98 31 1 1 2
-5 2 -11z m880 2 c0 -5 -2 -10 -4 -10 -3 0 -8 5 -11 10 -3 6 -1 10 4 10 6 0
11 -4 11 -10z m344 -6 c3 -8 2 -12 -4 -9 -6 3 -10 10 -10 16 0 14 7 11 14 -7z
m-1369 -15 c-54 -22 -196 -61 -202 -56 -1 2 3 11 10 20 10 13 49 23 115 29 6
1 12 6 12 11 0 6 3 8 6 5 3 -3 17 -2 32 2 15 5 38 8 52 9 18 0 11 -6 -25 -20z
m405 2 c0 -14 -18 -23 -30 -16 -6 4 -8 11 -5 16 8 12 35 12 35 0z m60 2 c-8
-3 -18 -11 -22 -17 -4 -6 -10 -7 -15 -3 -9 10 16 27 37 26 13 -1 13 -1 0 -6z
m585 -13 c-3 -5 -12 -10 -18 -10 -7 0 -6 4 3 10 19 12 23 12 15 0z m175 -34
c-14 -14 -24 0 -16 21 6 15 8 15 16 3 6 -9 5 -19 0 -24z m693 27 c-7 -2 -21
-2 -30 0 -10 3 -4 5 12 5 17 0 24 -2 18 -5z m810 -20 c-7 -2 -21 -2 -30 0 -10
3 -4 5 12 5 17 0 24 -2 18 -5z m-1676 -19 c0 -7 -12 -12 -30 -12 -26 1 -28 3
-14 13 21 15 44 15 44 -1z m97 0 c3 -8 2 -12 -4 -9 -6 3 -10 10 -10 16 0 14 7
11 14 -7z m1419 9 c-24 -2 -62 -2 -85 0 -24 2 -5 4 42 4 47 0 66 -2 43 -4z
m-1600 -32 c-9 -11 -20 -18 -25 -15 -14 9 -9 22 10 27 31 8 32 7 15 -12z m-96
-13 c-3 -8 -6 -5 -6 6 -1 11 2 17 5 13 3 -3 4 -12 1 -19z m-1143 -4 c8 -22 8
-24 -8 -24 -9 0 -14 9 -13 20 2 24 13 26 21 4z m-284 1 c0 -6 -62 -45 -72 -45
-20 0 -4 21 25 34 36 16 47 19 47 11z m699 1 c-2 -3 -25 -14 -51 -25 -37 -15
-46 -17 -41 -5 3 8 13 14 23 14 11 0 22 5 25 10 3 6 16 10 27 10 12 0 19 -2
17 -4z m1708 -22 c-9 -9 -28 6 -21 18 4 6 10 6 17 -1 6 -6 8 -13 4 -17z m1503
16 c0 -5 -4 -10 -10 -10 -5 0 -10 5 -10 10 0 6 5 10 10 10 6 0 10 -4 10 -10z
m-2649 -41 c-23 -22 -32 -24 -28 -6 1 7 -6 11 -18 9 -19 -3 -19 -3 -1 11 10 7
30 12 43 9 24 -5 24 -5 4 -23z m2853 -4 c-7 -17 -20 -20 -28 -6 -7 10 3 21 20
21 8 0 11 -6 8 -15z m-3839 -5 c-3 -5 -2 -10 4 -10 6 0 7 -8 4 -17 -6 -15 -7
-14 -13 3 -7 18 -4 34 6 34 3 0 2 -4 -1 -10z m2343 3 c-10 -2 -26 -2 -35 0
-10 3 -2 5 17 5 19 0 27 -2 18 -5z m-818 -18 c0 6 7 1 15 -9 8 -11 15 -25 15
-30 -1 -6 -7 0 -15 14 -11 20 -14 21 -15 7 0 -10 5 -27 10 -37 7 -13 7 -21 0
-25 -6 -4 -10 -3 -9 2 3 20 -2 34 -11 28 -5 -3 -9 9 -8 30 1 23 4 31 9 23 5
-7 9 -8 9 -3z m730 -5 c0 -5 -2 -10 -4 -10 -3 0 -8 5 -11 10 -3 6 -1 10 4 10
6 0 11 -4 11 -10z m517 4 c-3 -3 -12 -4 -19 -1 -8 3 -5 6 6 6 11 1 17 -2 13
-5z m-3387 -24 c0 -5 -5 -10 -11 -10 -5 0 -7 5 -4 10 3 6 8 10 11 10 2 0 4 -4
4 -10z m1885 0 c3 -5 1 -10 -4 -10 -6 0 -11 5 -11 10 0 6 2 10 4 10 3 0 8 -4
11 -10z m-43 -42 c-8 -8 -9 -4 -5 13 4 13 8 18 11 10 2 -7 -1 -18 -6 -23z
m478 28 c0 -2 -7 -7 -16 -10 -8 -3 -12 -2 -9 4 6 10 25 14 25 6z m658 -36 c6
0 12 -6 15 -14 4 -10 -9 -7 -43 10 -27 14 -52 29 -55 33 -3 5 13 1 34 -10 22
-10 44 -19 49 -19z m-1258 15 c0 -12 -19 -12 -23 0 -4 9 -1 12 9 8 7 -3 14 -7
14 -8z m820 -26 c15 -28 5 -23 -15 7 -9 15 -12 23 -6 20 6 -4 16 -16 21 -27z
m-738 -11 c-7 -7 -12 -8 -12 -2 0 6 3 14 7 17 3 4 9 5 12 2 2 -3 -1 -11 -7
-17z m-1156 -3 c-11 -8 -25 -15 -30 -15 -6 1 0 7 14 15 32 19 40 18 16 0z
m679 5 c-3 -5 -15 -10 -26 -10 -13 0 -18 -4 -13 -12 5 -7 3 -8 -5 -3 -15 9 -4
21 24 28 11 3 21 5 23 6 2 0 0 -3 -3 -9z m1055 -25 c0 -5 -5 -3 -10 5 -5 8
-10 20 -10 25 0 6 5 3 10 -5 5 -8 10 -19 10 -25z m280 -18 c0 -8 16 -35 35
-61 20 -25 33 -46 29 -46 -3 0 -15 11 -26 25 -11 14 -24 22 -30 19 -6 -4 -9
-3 -5 2 3 5 -3 25 -12 45 -10 19 -21 44 -25 55 -6 17 -5 17 13 -3 12 -12 21
-28 21 -36z m887 47 c-3 -3 -12 -4 -19 -1 -8 3 -5 6 6 6 11 1 17 -2 13 -5z
m-3434 -31 c-3 -7 1 -13 8 -13 7 0 10 -3 7 -6 -7 -6 -48 17 -48 28 0 4 9 6 19
5 11 0 17 -6 14 -14z m2297 -4 c0 -6 -4 -7 -10 -4 -5 3 -10 11 -10 16 0 6 5 7
10 4 6 -3 10 -11 10 -16z m50 -14 c0 -5 -5 -3 -10 5 -5 8 -10 20 -10 25 0 6 5
3 10 -5 5 -8 10 -19 10 -25z m640 25 c0 -5 -8 -10 -17 -10 -15 0 -16 2 -3 10
19 12 20 12 20 0z m30 0 c0 -5 -4 -10 -10 -10 -5 0 -10 5 -10 10 0 6 5 10 10
10 6 0 10 -4 10 -10z m87 4 c-3 -3 -12 -4 -19 -1 -8 3 -5 6 6 6 11 1 17 -2 13
-5z m-2619 -32 c-20 -27 -22 -28 -14 -8 5 14 3 17 -11 12 -16 -5 -16 -4 1 9
24 18 41 9 24 -13z m-442 -20 c-20 -20 -39 -7 -24 18 9 14 15 16 26 8 11 -9
11 -14 -2 -26z m1414 28 c0 -5 -5 -10 -11 -10 -5 0 -7 5 -4 10 3 6 8 10 11 10
2 0 4 -4 4 -10z m951 -17 c12 -16 12 -17 -2 -6 -9 7 -20 9 -24 5 -5 -4 -5 -1
-1 6 9 16 11 15 27 -5z m-1821 -8 c-7 -8 -9 -15 -4 -16 5 0 -8 -7 -29 -14 -38
-14 -67 -11 -67 7 0 6 7 8 15 4 8 -3 15 -2 15 2 0 9 46 29 69 31 11 1 11 -2 1
-14z m-276 -37 c6 -4 8 -9 5 -12 -9 -10 -50 34 -43 46 4 7 11 3 17 -8 6 -11
15 -22 21 -26z m1127 19 c-10 -9 -11 -8 -5 6 3 10 9 15 12 12 3 -3 0 -11 -7
-18z m850 0 c-10 -9 -11 -8 -5 6 3 10 9 15 12 12 3 -3 0 -11 -7 -18z m-2281
-18 c0 -5 -4 -9 -10 -9 -5 0 -10 7 -10 16 0 8 5 12 10 9 6 -3 10 -10 10 -16z
m395 -9 c4 -6 -6 -10 -22 -10 -22 0 -25 2 -13 10 19 12 27 12 35 0z m1340 1
c6 -1 2 -6 -8 -12 -9 -6 -15 -13 -13 -17 3 -4 -4 -8 -14 -8 -13 0 -16 4 -10
11 6 7 6 15 -1 22 -10 10 4 11 46 4z m118 -4 c4 3 7 -1 7 -9 0 -9 5 -18 12
-20 7 -3 8 -7 3 -10 -6 -3 -21 9 -35 26 -13 17 -18 25 -9 19 9 -7 19 -10 22
-6z m-252 -11 c-8 -9 -8 -16 -2 -20 5 -4 15 2 21 11 11 17 11 17 6 0 -3 -10
-6 -26 -6 -35 0 -11 -3 -13 -8 -6 -4 6 -15 14 -26 17 -18 7 -18 8 -1 27 21 23
34 27 16 6z m-1277 -21 c3 -8 1 -15 -4 -15 -6 0 -10 7 -10 15 0 8 2 15 4 15 2
0 6 -7 10 -15z m1443 -7 c2 -17 0 -19 -7 -8 -5 8 -6 18 -4 22 8 12 10 10 11
-14z m-210 -7 c0 -11 -5 -18 -9 -15 -4 3 -5 11 -1 19 7 21 12 19 10 -4z m256
-32 c-6 -6 -7 3 -4 23 4 28 6 29 9 9 2 -13 0 -27 -5 -32z m657 47 c0 -3 -4 -8
-10 -11 -5 -3 -10 -1 -10 4 0 6 5 11 10 11 6 0 10 -2 10 -4z m-1156 -14 c3 -5
-1 -9 -9 -9 -8 0 -15 4 -15 9 0 4 4 8 9 8 6 0 12 -4 15 -8z m1320 -1 c3 -5 -1
-11 -9 -14 -9 -4 -12 -1 -8 9 6 16 10 17 17 5z m191 -11 c-3 -5 -18 -9 -33 -9
l-27 1 30 8 c17 4 31 8 33 9 2 0 0 -3 -3 -9z m-2145 -26 c0 -16 -16 -19 -25
-4 -8 13 4 32 16 25 5 -4 9 -13 9 -21z m745 -21 c-14 -21 -25 -45 -25 -54 0
-9 -7 -22 -15 -29 -8 -7 -15 -10 -15 -8 0 18 66 128 76 128 3 0 -7 -17 -21
-37z m2095 -3 c12 -16 19 -30 16 -30 -2 0 -14 14 -26 30 -12 17 -19 30 -16 30
2 0 14 -13 26 -30z m-3162 -26 c-9 -9 -21 -13 -28 -9 -9 6 -9 10 3 17 10 5 14
15 10 26 -5 16 -5 16 13 0 17 -17 17 -19 2 -34z m-28 26 c0 -5 -2 -10 -4 -10
-3 0 -8 5 -11 10 -3 6 -1 10 4 10 6 0 11 -4 11 -10z m670 6 c0 -2 -7 -9 -15
-16 -13 -11 -14 -10 -9 4 5 14 24 23 24 12z m-1076 -42 c3 -8 2 -12 -4 -9 -6
3 -10 10 -10 16 0 14 7 11 14 -7z m3460 -10 c7 -19 2 -18 -19 6 -16 17 -16 20
-3 15 9 -4 19 -13 22 -21z m-3334 -4 c0 -5 -4 -10 -10 -10 -5 0 -10 5 -10 10
0 6 5 10 10 10 6 0 10 -4 10 -10z m912 -20 c-5 -36 -21 -51 -18 -17 3 22 13
47 20 47 1 0 1 -14 -2 -30z m1268 -46 c0 -5 -11 7 -25 26 -14 19 -25 39 -25
44 0 6 11 -6 25 -26 14 -20 25 -40 25 -44z m-1866 27 c34 -37 11 -32 -24 6
-21 21 -26 32 -15 26 11 -6 29 -21 39 -32z m-474 25 c0 -3 -4 -8 -10 -11 -5
-3 -10 -1 -10 4 0 6 5 11 10 11 6 0 10 -2 10 -4z m563 -63 c8 -24 11 -43 7
-43 -4 0 -11 7 -14 16 -4 9 -13 14 -21 10 -8 -3 -15 -1 -15 4 0 5 -7 7 -15 4
-18 -7 -19 0 -4 28 9 17 13 18 20 7 6 -10 9 -7 9 11 0 32 15 16 33 -37z m477
18 c0 -5 -7 -12 -16 -15 -14 -5 -15 -4 -4 9 14 17 20 19 20 6z m917 -38 c-3
-10 -5 -2 -5 17 0 19 2 27 5 18 2 -10 2 -26 0 -35z m1718 37 c3 -5 2 -10 -4
-10 -5 0 -13 5 -16 10 -3 6 -2 10 4 10 5 0 13 -4 16 -10z m-1315 -45 c14 -19
14 -19 -2 -6 -10 7 -18 18 -18 24 0 6 1 8 3 6 1 -2 9 -13 17 -24z m-934 -11
c-4 -9 -9 -15 -11 -12 -3 3 -3 13 1 22 4 9 9 15 11 12 3 -3 3 -13 -1 -22z
m2403 -44 c34 -22 61 -43 61 -46 0 -3 -13 4 -29 15 -16 12 -32 21 -36 21 -6 0
-70 45 -90 63 -17 16 30 -11 94 -53z m-3259 -3 c0 -8 -11 -12 -27 -11 -38 2
-41 4 -18 14 30 13 45 12 45 -3z m93 -82 c20 -20 41 -46 47 -58 6 -12 -6 -3
-27 21 -21 23 -45 42 -54 42 -9 0 -19 7 -23 15 -10 27 20 16 57 -20z m3385
-69 c67 -49 120 -91 118 -93 -4 -4 -238 167 -261 190 -21 21 25 -11 143 -97z
m-2668 69 c-7 -9 -15 -13 -18 -10 -3 2 1 11 8 20 7 9 15 13 18 10 3 -2 -1 -11
-8 -20z m2605 15 c3 -5 1 -10 -4 -10 -6 0 -11 5 -11 10 0 6 2 10 4 10 3 0 8
-4 11 -10z m-2896 -32 c-22 -42 -62 -98 -66 -94 -4 4 68 116 74 116 2 0 -2
-10 -8 -22z m604 -39 c-6 -6 -7 3 -4 23 4 28 6 29 9 9 2 -13 0 -27 -5 -32z
m-690 16 c-3 -9 -8 -14 -10 -11 -3 3 -2 9 2 15 9 16 15 13 8 -4z m1358 -8
c-10 -9 -11 -8 -5 6 3 10 9 15 12 12 3 -3 0 -11 -7 -18z m463 -193 c12 -22 33
-53 48 -69 14 -15 34 -45 44 -66 10 -22 21 -36 28 -32 6 3 8 3 4 -2 -4 -4 2
-21 13 -36 11 -16 17 -29 13 -29 -4 0 1 -10 12 -22 l19 -23 -22 19 c-13 10
-20 22 -18 26 3 5 2 10 -2 12 -10 4 -83 115 -83 125 0 4 -10 17 -22 30 -36 39
-148 245 -148 274 0 9 38 -60 114 -207z m126 181 c13 -14 21 -25 18 -25 -2 0
-15 11 -28 25 -13 14 -21 25 -18 25 2 0 15 -11 28 -25z m-2190 1 c0 -2 -8 -10
-17 -17 -16 -13 -17 -12 -4 4 13 16 21 21 21 13z m1628 -8 c-2 -8 6 -13 19
-12 12 0 19 -4 16 -9 -4 -6 1 -8 11 -4 10 4 15 3 11 -3 -3 -6 3 -10 14 -10 11
0 22 -3 24 -7 3 -5 -8 -8 -23 -8 -15 0 -26 3 -23 8 2 4 -4 7 -14 7 -14 0 -10
-8 17 -29 19 -16 39 -27 44 -24 5 4 6 1 2 -5 -10 -17 -32 -15 -50 4 -9 8 -16
12 -16 8 0 -3 -7 -1 -15 6 -8 7 -12 16 -10 21 3 4 -4 18 -16 30 -17 17 -19 23
-8 30 18 11 19 11 17 -3z m-1094 -43 c-21 -19 -43 -34 -49 -35 -5 0 10 18 35
39 25 21 47 37 49 35 2 -2 -13 -20 -35 -39z m1021 -6 c-4 -30 -12 -46 -18 -38
-5 5 12 69 18 69 2 0 2 -14 0 -31z m716 -6 c13 -16 12 -17 -3 -4 -17 13 -22
21 -14 21 2 0 10 -8 17 -17z m1188 -9 c17 -14 31 -31 31 -37 0 -8 -3 -8 -8 -2
-4 6 -22 23 -40 38 -19 15 -29 27 -24 27 6 0 24 -12 41 -26z m-2668 -7 c-10
-9 -11 -8 -5 6 3 10 9 15 12 12 3 -3 0 -11 -7 -18z m426 -9 c-3 -8 -6 -5 -6 6
-1 11 2 17 5 13 3 -3 4 -12 1 -19z m250 0 c-3 -8 -6 -5 -6 6 -1 11 2 17 5 13
3 -3 4 -12 1 -19z m-777 -22 c-7 -7 -13 -7 -20 0 -6 6 -3 10 10 10 13 0 16 -4
10 -10z m-483 -2 c-3 -3 -12 -4 -19 -1 -8 3 -5 6 6 6 11 1 17 -2 13 -5z m172
-15 c-10 -20 -40 -39 -60 -39 -7 0 -1 13 14 28 32 33 62 40 46 11z m93 -11
c-8 -8 -9 -4 -5 13 4 13 8 18 11 10 2 -7 -1 -18 -6 -23z m755 0 c-3 -7 -5 -2
-5 12 0 14 2 19 5 13 2 -7 2 -19 0 -25z m269 -5 c-10 -10 -19 5 -10 18 6 11 8
11 12 0 2 -7 1 -15 -2 -18z m224 -4 c0 -16 -4 -19 -19 -14 -13 4 -21 0 -24
-10 -4 -11 -4 -11 -3 2 1 11 9 17 20 16 11 0 15 4 12 13 -3 8 -1 14 4 14 6 0
10 -9 10 -21z m1786 -31 c4 -7 -9 1 -29 16 -20 16 -37 30 -37 33 0 7 58 -36
66 -49z m-3463 22 c8 0 7 -4 -1 -12 -9 -9 -16 -8 -30 6 -16 18 -16 19 1 12 10
-3 24 -6 30 -6z m97 0 c12 -8 10 -10 -10 -9 -14 1 -36 5 -50 9 -23 7 -22 8 10
9 19 0 42 -4 50 -9z m45 -10 c3 -6 -1 -7 -9 -4 -18 7 -21 14 -7 14 6 0 13 -4
16 -10z m111 -5 c17 -16 14 -18 -10 -9 -9 3 -16 10 -16 15 0 13 9 11 26 -6z
m344 0 c-7 -9 -15 -13 -17 -11 -7 7 7 26 19 26 6 0 6 -6 -2 -15z m-502 -6 c12
0 22 -4 22 -9 0 -5 -8 -7 -17 -3 -17 6 -17 5 0 -15 23 -25 19 -52 -9 -62 -15
-6 -21 -4 -21 7 0 9 7 13 20 9 13 -3 6 8 -21 33 -39 37 -45 59 -13 45 9 -4 26
-6 39 -5z m1444 -79 c5 0 6 -4 3 -10 -9 -14 -45 -12 -46 3 0 6 -2 20 -4 30 -2
9 1 15 6 11 5 -3 10 10 10 28 1 29 2 28 11 -14 6 -27 14 -48 20 -48z m-1213
71 c7 -5 12 -13 10 -18 -2 -5 -12 -1 -21 9 -19 19 -13 24 11 9z m125 -6 c-4
-8 -1 -15 5 -15 6 0 11 4 11 9 0 5 8 8 18 6 9 -2 21 -4 25 -4 5 -1 5 -5 2 -11
-3 -5 -1 -10 4 -10 6 0 11 -4 11 -9 0 -4 -12 -7 -27 -4 -16 2 -38 5 -51 7 -12
1 -25 6 -30 11 -4 4 -1 5 6 1 8 -5 12 0 12 13 0 12 4 21 10 21 5 0 7 -7 4 -15z
m803 -17 c-3 -7 -5 -2 -5 12 0 14 2 19 5 13 2 -7 2 -19 0 -25z m170 2 c-7 -17
-13 -26 -15 -21 -3 10 15 51 22 51 3 0 -1 -14 -7 -30z m288 20 c3 -5 2 -10 -4
-10 -5 0 -13 5 -16 10 -3 6 -2 10 4 10 5 0 13 -4 16 -10z m-1467 -20 c8 0 13
-3 9 -6 -10 -10 -48 7 -40 19 5 8 8 8 11 -1 2 -7 11 -12 20 -12z m362 10 c0
-5 -5 -10 -11 -10 -5 0 -7 5 -4 10 3 6 8 10 11 10 2 0 4 -4 4 -10z m97 -10 c1
-11 -2 -20 -8 -20 -10 0 -12 23 -2 33 9 9 9 10 10 -13z m988 -49 c8 -32 -8
-47 -29 -26 -14 14 -22 15 -51 5 -19 -6 -41 -9 -48 -7 -7 3 -5 6 5 6 9 1 20 5
23 11 4 6 -1 7 -12 3 -10 -3 -14 -2 -10 2 4 5 24 8 43 7 20 -2 33 1 30 6 -3 5
1 9 8 9 9 0 12 -7 9 -16 -5 -13 -3 -13 7 -4 14 12 7 45 -9 41 -9 -3 -11 2 -11
25 1 18 38 -34 45 -62z m-481 -10 c-7 -7 -12 3 -18 39 l-6 35 14 -35 c7 -19
12 -37 10 -39z m-1053 26 c-10 -9 -11 -8 -5 6 3 10 9 15 12 12 3 -3 0 -11 -7
-18z m1583 14 c3 -5 -1 -11 -9 -14 -9 -4 -12 -1 -8 9 6 16 10 17 17 5z m116 5
c0 -3 -4 -8 -10 -11 -5 -3 -10 -1 -10 4 0 6 5 11 10 11 6 0 10 -2 10 -4z
m-1120 -31 c-13 -16 -50 -21 -50 -7 0 15 13 22 38 22 21 0 22 -2 12 -15z m37
-7 c-13 -20 -27 -24 -27 -8 0 6 5 10 11 10 5 0 8 4 5 8 -3 5 1 9 8 9 11 0 12
-4 3 -19z m1016 -7 c6 -25 -18 -35 -38 -15 -20 21 -19 27 5 19 16 -5 19 -3 13
11 -4 11 -2 15 4 11 6 -4 13 -15 16 -26z m-1603 15 c0 -2 -7 -7 -16 -10 -8 -3
-12 -2 -9 4 6 10 25 14 25 6z m665 -7 c-4 -6 0 -9 10 -7 10 2 20 -2 22 -7 4
-13 -41 -14 -53 -2 -5 4 -2 12 6 17 20 13 23 12 15 -1z m-45 -9 c0 -5 -4 -10
-10 -10 -5 0 -10 5 -10 10 0 6 5 10 10 10 6 0 10 -4 10 -10z m210 -14 c0 -6 5
-4 10 4 6 10 10 11 10 3 0 -8 11 -11 33 -8 25 4 28 3 12 -4 -16 -8 -13 -10 20
-10 28 -1 36 -4 25 -10 -8 -6 -17 -8 -21 -5 -4 2 -32 6 -64 8 -59 4 -71 9 -61
24 7 12 36 11 36 -2z m1510 -1 c11 -13 10 -14 -4 -9 -9 3 -16 10 -16 15 0 13
6 11 20 -6z m1121 -21 c9 -11 2 -9 -18 6 -18 13 -33 25 -33 27 0 8 38 -17 51
-33z m-3471 17 c0 -6 -4 -13 -10 -16 -5 -3 -10 1 -10 9 0 9 5 16 10 16 6 0 10
-4 10 -9z m455 -1 c3 -5 1 -10 -4 -10 -6 0 -11 5 -11 10 0 6 2 10 4 10 3 0 8
-4 11 -10z m575 -3 c0 7 7 10 15 7 9 -4 14 -11 13 -18 -4 -22 23 -58 41 -53
10 2 18 -1 18 -8 0 -21 -40 -4 -74 32 -18 19 -33 39 -33 46 0 7 4 6 10 -3 6
-9 10 -11 10 -3z m111 -20 l-24 -22 19 27 c10 14 21 24 23 22 3 -3 -6 -15 -18
-27z m60 -26 c-18 -12 -65 -1 -52 12 7 7 15 6 26 -3 13 -11 15 -8 16 16 0 29
0 29 12 6 8 -18 8 -25 -2 -31z m1213 10 c-3 -3 -15 6 -27 18 l-22 24 27 -19
c14 -10 24 -21 22 -23z m-906 8 c3 -12 2 -12 -6 0 -8 11 -10 11 -15 0 -4 -10
-6 -8 -6 4 -1 21 21 18 27 -4z m26 5 c3 -8 2 -12 -4 -9 -6 3 -10 10 -10 16 0
14 7 11 14 -7z m81 5 c-4 -5 -2 -9 4 -9 5 0 9 -14 9 -31 l-1 -30 -22 27 -22
27 -16 -24 c-22 -30 -22 -16 -1 20 9 15 25 28 35 28 11 1 17 -2 14 -8z m-1525
-33 c0 -11 -21 -6 -36 8 -10 11 -11 15 -1 19 11 3 37 -15 37 -27z m1170 24 c0
-5 -4 -10 -10 -10 -5 0 -10 5 -10 10 0 6 5 10 10 10 6 0 10 -4 10 -10z m-886
-15 c-4 -8 -8 -15 -10 -15 -2 0 -4 7 -4 15 0 8 4 15 10 15 5 0 7 -7 4 -15z
m1281 5 c3 -5 1 -10 -4 -10 -6 0 -11 5 -11 10 0 6 2 10 4 10 3 0 8 -4 11 -10z
m816 -37 c13 -16 12 -17 -3 -4 -17 13 -22 21 -14 21 2 0 10 -8 17 -17z m-1308
-13 c-3 -11 -9 -20 -15 -20 -5 0 -4 9 2 20 6 11 12 20 14 20 2 0 2 -9 -1 -20z
m194 14 c-3 -3 -12 -4 -19 -1 -8 3 -5 6 6 6 11 1 17 -2 13 -5z m-1133 -20 c3
-8 2 -12 -4 -9 -6 3 -10 10 -10 16 0 14 7 11 14 -7z m204 -15 c-3 -8 -7 -3
-11 10 -4 17 -3 21 5 13 5 -5 8 -16 6 -23z m1089 -11 c-21 -28 -22 -29 -25 -8
-4 26 15 51 33 43 11 -4 10 -11 -8 -35z m858 -32 c82 -62 121 -95 113 -96 -3
0 -37 25 -75 56 -37 31 -87 67 -110 81 -24 14 -43 27 -43 29 0 9 58 -26 115
-70z m85 49 c13 -14 21 -25 18 -25 -2 0 -15 11 -28 25 -13 14 -21 25 -18 25 2
0 15 -11 28 -25z m1141 -11 c9 -11 2 -9 -18 6 -18 13 -33 25 -33 27 0 8 38
-17 51 -33z m-3310 -3 c12 19 11 8 -1 -28 -11 -31 -38 -41 -36 -14 1 12 -7 15
-27 14 -19 -1 -27 2 -24 10 2 7 11 11 21 9 9 -2 16 2 16 8 0 7 6 7 21 -1 17
-9 23 -8 30 2z m996 3 c-3 -3 -12 -4 -19 -1 -8 3 -5 6 6 6 11 1 17 -2 13 -5z
m1263 -26 c0 -6 -6 -5 -15 2 -8 7 -15 14 -15 16 0 2 7 1 15 -2 8 -4 15 -11 15
-16z m-2223 -10 c-3 -8 -6 -5 -6 6 -1 11 2 17 5 13 3 -3 4 -12 1 -19z m823 8
c0 -3 -4 -8 -10 -11 -5 -3 -10 -1 -10 4 0 6 5 11 10 11 6 0 10 -2 10 -4z m151
-13 c13 -16 12 -17 -3 -4 -10 7 -18 15 -18 17 0 8 8 3 21 -13z m-166 -60 c-9
-66 -15 -84 -25 -78 -5 3 -10 0 -13 -7 -2 -7 -3 -1 -1 13 1 14 -1 30 -5 35 -5
5 -4 20 1 34 10 24 10 24 18 5 6 -14 9 -16 10 -5 1 8 3 20 5 25 1 6 3 13 3 18
1 4 5 7 8 7 3 0 2 -21 -1 -47z m579 26 c-13 -15 -13 -17 1 -22 8 -4 14 -10 13
-14 -5 -16 25 -73 35 -66 5 3 7 2 4 -3 -3 -6 8 -34 24 -64 17 -30 32 -63 34
-72 4 -19 -10 -24 -20 -8 -3 6 -2 10 3 10 6 0 -19 50 -54 112 -35 62 -61 114
-59 117 3 2 -2 9 -10 15 -13 9 -10 11 14 11 27 0 28 -2 15 -16z m853 7 c-1 -6
5 -12 13 -12 8 -1 22 -2 30 -3 12 -1 12 -3 2 -9 -9 -6 2 -20 37 -48 28 -21 52
-45 55 -52 3 -7 -24 12 -61 43 -37 32 -75 62 -85 68 -22 14 -23 24 -4 24 8 0
14 -5 13 -11z m-2179 -19 c9 -7 9 -13 1 -24 -10 -11 -15 -11 -30 3 -10 9 -15
22 -12 30 5 13 14 11 41 -9z m29 1 c-3 -8 -6 -5 -6 6 -1 11 2 17 5 13 3 -3 4
-12 1 -19z m900 -10 c-3 -7 -5 -2 -5 12 0 14 2 19 5 13 2 -7 2 -19 0 -25z
m214 -75 c-9 -16 -10 -15 -11 7 0 20 -2 22 -10 10 -8 -12 -10 -11 -10 6 0 12
7 25 16 28 10 4 14 12 10 22 -3 9 -3 21 1 27 12 18 15 -81 4 -100z m567 19
c32 -42 71 -97 86 -122 47 -73 136 -168 154 -165 21 3 44 -14 36 -26 -6 -11
56 -85 68 -82 4 2 5 -4 1 -12 -4 -11 -18 1 -50 42 -24 31 -50 58 -57 59 -19 3
-111 103 -148 162 -18 29 -64 94 -102 144 -38 50 -64 88 -57 84 6 -4 37 -42
69 -84z m638 52 c18 -14 18 -14 -6 -3 -31 14 -36 19 -24 19 6 0 19 -7 30 -16z
m-56 -4 c8 -5 11 -10 5 -10 -5 0 -17 5 -25 10 -8 5 -10 10 -5 10 6 0 17 -5 25
-10z m-1511 -26 c7 5 9 1 5 -8 -5 -14 -24 -23 -24 -12 0 2 -3 13 -6 23 -4 14
-4 15 4 4 5 -7 15 -11 21 -7z m-759 -4 c0 -5 -2 -10 -4 -10 -3 0 -8 5 -11 10
-3 6 -1 10 4 10 6 0 11 -4 11 -10z m227 -12 c-3 -8 -6 -5 -6 6 -1 11 2 17 5
13 3 -3 4 -12 1 -19z m250 0 c-3 -8 -6 -5 -6 6 -1 11 2 17 5 13 3 -3 4 -12 1
-19z m445 2 c2 -5 22 -13 46 -16 72 -10 106 -25 42 -18 -48 5 -75 8 -102 13
-11 2 -10 31 1 31 5 0 11 -4 13 -10z m1193 0 c3 -6 -1 -7 -9 -4 -18 7 -21 14
-7 14 6 0 13 -4 16 -10z m-2075 -17 c0 -10 -4 -14 -8 -8 -4 6 -11 13 -16 18
-5 4 -2 7 7 7 10 0 17 -8 17 -17z m70 -25 c0 -10 -2 -18 -5 -18 -12 0 -54 44
-49 51 8 14 54 -13 54 -33z m760 22 c0 -5 -4 -10 -10 -10 -5 0 -10 5 -10 10 0
6 5 10 10 10 6 0 10 -4 10 -10z m1335 -35 c11 -9 2 -7 -20 6 -22 12 -44 26
-50 32 -16 15 48 -20 70 -38z m125 35 c0 -5 -5 -10 -11 -10 -5 0 -7 5 -4 10 3
6 8 10 11 10 2 0 4 -4 4 -10z m-2186 -15 c-4 -8 -1 -15 5 -15 6 0 11 -7 11
-15 0 -17 -25 -20 -35 -5 -3 5 -1 19 5 30 12 23 22 27 14 5z m84 -17 c0 -18 8
-38 18 -45 14 -10 15 -16 6 -25 -10 -10 -14 -8 -19 10 -4 17 -9 20 -18 12 -13
-11 -45 -4 -45 9 0 16 14 20 27 9 17 -14 31 -2 16 13 -9 9 -8 17 0 30 7 11 12
19 13 19 0 0 1 -14 2 -32z m259 -15 c-3 -10 -5 -2 -5 17 0 19 2 27 5 18 2 -10
2 -26 0 -35z m616 17 c7 -28 -19 -40 -57 -28 -38 13 -56 28 -34 28 9 0 19 -4
22 -8 2 -4 19 -9 38 -10 29 -2 31 0 16 12 -22 16 -23 26 -4 26 7 0 16 -9 19
-20z m-313 -4 c0 -2 -7 -7 -16 -10 -8 -3 -12 -2 -9 4 6 10 25 14 25 6z m-175
-15 c3 -5 2 -12 -3 -15 -5 -3 -9 1 -9 9 0 17 3 19 12 6z m1735 5 c0 -2 -7 -7
-16 -10 -8 -3 -12 -2 -9 4 6 10 25 14 25 6z m-1164 -25 c-4 -5 0 -11 6 -14 8
-2 9 -8 4 -13 -5 -5 -11 -4 -13 4 -3 6 -9 10 -14 6 -5 -3 -9 -1 -9 5 0 5 6 12
13 14 18 8 19 8 13 -2z m84 -17 c17 -15 28 -29 26 -32 -3 -3 -17 7 -32 21 -14
14 -35 28 -47 30 l-22 4 22 2 c12 0 36 -11 53 -25z m-773 -6 c-3 -8 -6 -5 -6
6 -1 11 2 17 5 13 3 -3 4 -12 1 -19z m623 2 c6 -11 7 -20 2 -20 -6 0 -12 9
-15 20 -3 11 -3 20 -1 20 2 0 8 -9 14 -20z m1363 -12 c-9 -10 -24 -18 -33 -18
-25 0 -31 -11 -17 -29 11 -14 10 -14 -6 -2 -17 13 -17 15 5 39 18 20 19 24 6
19 -10 -4 -18 -2 -18 2 0 5 18 8 39 8 37 -2 38 -3 24 -19z m-3896 -17 c-6 -18
-17 -28 -26 -26 -9 2 -18 4 -20 4 -7 1 42 51 50 51 4 0 2 -13 -4 -29z m2028
-8 c-4 -21 -13 -56 -20 -78 -10 -27 -11 -41 -4 -46 7 -4 8 -9 1 -13 -5 -3 -13
1 -16 10 -5 13 -9 14 -21 4 -21 -17 -19 -27 6 -26 12 1 24 -5 26 -11 5 -15
-28 -18 -42 -4 -6 5 -21 11 -35 13 -17 2 -25 9 -25 23 0 11 -4 26 -9 34 -7 11
-5 13 7 8 10 -3 17 -2 17 3 0 5 9 7 20 5 11 -2 24 4 30 13 9 14 10 14 5 -5 -3
-12 -2 -24 3 -27 13 -8 35 47 38 93 2 43 1 41 15 41 8 0 9 -12 4 -37z m-334 5
c0 -22 1 -22 9 -3 7 16 9 17 9 3 1 -23 -19 -34 -30 -17 -12 19 -11 39 1 39 6
0 10 -10 11 -22z m889 6 c0 -2 -7 -4 -15 -4 -8 0 -15 4 -15 10 0 5 7 7 15 4 8
-4 15 -8 15 -10z m65 -4 c-3 -5 -15 -10 -26 -10 -10 0 -19 5 -19 10 0 6 12 10
26 10 14 0 23 -4 19 -10z m80 -10 c12 5 14 9 6 9 -8 1 -12 3 -9 6 9 9 38 -6
38 -20 0 -9 -12 -12 -41 -9 -45 4 -59 10 -59 25 0 5 10 3 23 -5 14 -9 29 -11
42 -6z m260 -20 c16 -6 14 -8 -12 -7 -18 0 -30 4 -27 9 6 10 12 9 39 -2z
m-1208 -26 c-9 -9 -28 6 -21 18 4 6 10 6 17 -1 6 -6 8 -13 4 -17z m819 -62 c4
-20 6 -45 5 -56 -2 -10 2 -15 7 -12 5 3 12 -7 14 -24 2 -16 1 -27 -4 -24 -4 3
-8 0 -8 -6 0 -6 -4 -9 -9 -6 -5 4 -12 0 -15 -6 -3 -7 -5 -4 -4 7 1 11 -3 30
-10 42 -7 13 -8 24 -3 28 5 3 12 -5 14 -17 3 -13 4 -5 4 17 -1 43 -26 125 -27
90 -1 -18 -2 -18 -10 -3 -6 9 -7 24 -4 32 6 14 9 14 24 -4 10 -11 21 -37 26
-58z m1338 17 c23 -20 57 -51 76 -69 35 -32 35 -32 4 -14 -40 24 -154 126
-154 138 0 9 11 1 74 -55z m-2028 35 c-22 -16 -56 -19 -56 -4 0 5 7 7 15 4 8
-4 15 -2 15 3 0 5 10 9 23 10 21 2 21 1 3 -13z m1202 -2 c5 -17 -13 -15 -27 2
-10 12 -9 14 5 12 10 -2 20 -8 22 -14z m176 -3 c-3 -5 -10 -7 -15 -3 -5 3 -7
10 -3 15 3 5 10 7 15 3 5 -3 7 -10 3 -15z m-334 -1 c0 -10 -29 -9 -55 2 -15 6
-11 8 17 7 21 -1 38 -5 38 -9z m-3023 -28 c-1 -11 -7 -22 -14 -24 -16 -6 -16
-1 -3 25 14 24 19 24 17 -1z m3402 -12 c20 -23 21 -26 5 -24 -11 2 -19 8 -19
14 0 6 -3 14 -7 18 -5 4 -8 12 -8 17 0 6 1 8 3 6 1 -2 13 -16 26 -31z m-1449
-11 c0 -5 -4 -5 -10 -2 -5 3 -10 14 -10 23 0 15 2 15 10 2 5 -8 10 -19 10 -23z
m-875 13 c3 -5 -1 -10 -9 -10 -8 0 -18 5 -21 10 -3 6 1 10 9 10 8 0 18 -4 21
-10z m1553 -30 c-2 -7 -10 1 -17 16 -12 27 -11 28 4 12 10 -9 16 -21 13 -28z
m347 -10 c4 -23 13 -40 77 -152 37 -65 54 -85 66 -81 10 4 13 2 8 -5 -4 -7
-11 -12 -16 -12 -9 0 -62 74 -73 102 -3 10 -22 43 -42 73 -19 31 -38 72 -40
93 -4 29 -3 33 5 19 6 -9 13 -26 15 -37z m-2980 -17 c-9 -39 -34 -75 -46 -68
-5 4 1 20 16 37 14 16 25 36 25 44 0 8 3 14 6 14 3 0 3 -12 -1 -27z m3044 -22
c15 -29 16 -38 6 -38 -7 0 -11 7 -7 15 3 10 1 13 -6 8 -6 -3 -14 -1 -18 5 -4
8 -3 9 4 5 17 -10 15 6 -5 33 -9 14 -11 21 -5 17 7 -4 21 -24 31 -45z m-3119
-26 c-14 -17 -40 -20 -40 -6 0 5 10 12 23 14 12 2 24 5 26 6 2 0 -2 -6 -9 -14z
m1381 -2 c13 -16 12 -17 -3 -4 -17 13 -22 21 -14 21 2 0 10 -8 17 -17z m814 7
c-8 -12 -3 -13 29 0 17 6 26 6 26 -1 0 -5 19 -19 43 -29 34 -16 37 -18 12 -14
-27 5 -78 19 -113 30 -12 3 -8 24 4 24 3 0 2 -4 -1 -10z m205 -30 c79 -24 267
-64 297 -63 15 1 20 -4 16 -14 -3 -8 -12 -12 -19 -9 -8 3 -52 13 -99 21 -47 9
-117 27 -157 41 -40 13 -79 22 -88 19 -9 -3 -25 2 -36 10 -19 14 -19 14 1 15
11 0 49 -9 85 -20z m740 -20 c6 -11 8 -20 6 -20 -3 0 -10 9 -16 20 -6 11 -8
20 -6 20 3 0 10 -9 16 -20z m458 -46 c7 4 12 1 12 -8 0 -8 -5 -18 -12 -22 -6
-4 -8 -3 -5 3 4 6 -1 13 -11 15 -10 3 -28 23 -41 44 l-22 39 34 -39 c20 -24
38 -36 45 -32z m-1208 40 c16 -10 18 -13 5 -8 -11 4 -28 7 -37 8 -9 0 -14 4
-12 8 7 11 15 10 44 -8z m377 -16 c-3 -8 -6 -5 -6 6 -1 11 2 17 5 13 3 -3 4
-12 1 -19z m896 5 c-7 -2 -21 -2 -30 0 -10 3 -4 5 12 5 17 0 24 -2 18 -5z m37
-3 c0 -5 -2 -10 -4 -10 -3 0 -8 5 -11 10 -3 6 -1 10 4 10 6 0 11 -4 11 -10z
m-55 -20 c3 -6 -1 -7 -9 -4 -18 7 -21 14 -7 14 6 0 13 -4 16 -10z m-1418 -22
c-3 -8 -6 -5 -6 6 -1 11 2 17 5 13 3 -3 4 -12 1 -19z m553 -4 c0 -8 -4 -12
-10 -9 -5 3 -10 13 -10 21 0 8 5 12 10 9 6 -3 10 -13 10 -21z m-30 6 c0 -5 -8
-10 -17 -10 -15 0 -16 2 -3 10 19 12 20 12 20 0z m46 -25 c-3 -8 -1 -15 4 -15
6 0 10 -4 10 -10 0 -12 -10 -13 -29 -1 -12 8 -12 11 0 25 18 20 23 20 15 1z
m689 -4 c-38 -17 -123 -36 -112 -25 8 8 119 43 137 43 8 0 -3 -8 -25 -18z
m-598 -7 c-3 -3 -12 -4 -19 -1 -8 3 -5 6 6 6 11 1 17 -2 13 -5z m-648 -103 c2
-67 -6 -45 -12 34 -3 42 -2 58 3 40 4 -16 8 -50 9 -74z m2201 62 c12 -15 12
-16 0 -5 -21 18 -34 15 -19 -5 13 -17 13 -17 -7 0 -26 21 -29 50 -4 37 9 -5
23 -17 30 -27z m-1412 20 c-10 -2 -26 -2 -35 0 -10 3 -2 5 17 5 19 0 27 -2 18
-5z m280 0 c-10 -2 -28 -2 -40 0 -13 2 -5 4 17 4 22 1 32 -1 23 -4z m422 -116
c0 -4 -17 12 -37 35 -57 66 -64 81 -11 24 26 -28 48 -54 48 -59z m-3203 97
c-3 -3 -12 -4 -19 -1 -8 3 -5 6 6 6 11 1 17 -2 13 -5z m1434 -37 c-10 -9 -11
-8 -5 6 3 10 9 15 12 12 3 -3 0 -11 -7 -18z m1308 -11 c-3 -3 -11 5 -18 17
-13 21 -12 21 5 5 10 -10 16 -20 13 -22z m-1274 14 c3 -5 1 -10 -4 -10 -6 0
-11 5 -11 10 0 6 2 10 4 10 3 0 8 -4 11 -10z m2535 -56 c14 -16 17 -22 6 -14
-10 8 -25 15 -33 16 -18 3 -45 25 -38 32 3 3 -1 12 -8 21 -20 25 46 -24 73
-55z m-1680 -16 c0 -5 -7 -3 -15 6 -8 8 -15 18 -15 22 0 3 7 1 15 -6 8 -7 15
-17 15 -22z m1770 -43 c0 -16 -21 -10 -41 12 l-24 26 33 -17 c17 -9 32 -18 32
-21z m-1290 -6 c15 -28 5 -23 -15 7 -9 15 -12 23 -6 20 6 -4 16 -16 21 -27z
m466 -21 l29 -33 -32 29 c-31 28 -38 36 -30 36 2 0 16 -15 33 -32z m-1549 -15
c-3 -10 -5 -4 -5 12 0 17 2 24 5 18 2 -7 2 -21 0 -30z m1623 -28 c14 -19 14
-19 -2 -6 -10 7 -18 18 -18 24 0 6 1 8 3 6 1 -2 9 -13 17 -24z m0 -40 c13 -14
21 -25 18 -25 -2 0 -15 11 -28 25 -13 14 -21 25 -18 25 2 0 15 -11 28 -25z
m-4050 -39 c0 -12 -5 -7 -19 24 -11 24 -11 24 3 6 9 -11 16 -24 16 -30z m4190
-46 c23 -28 40 -50 37 -50 -2 0 -26 26 -53 57 -27 31 -44 54 -37 50 6 -4 30
-30 53 -57z m-4215 40 c3 -5 1 -10 -4 -10 -6 0 -11 5 -11 10 0 6 2 10 4 10 3
0 8 -4 11 -10z m35 -45 c0 -5 -5 -3 -10 5 -5 8 -10 20 -10 25 0 6 5 3 10 -5 5
-8 10 -19 10 -25z m4101 18 c13 -16 12 -17 -3 -4 -10 7 -18 15 -18 17 0 8 8 3
21 -13z m-4176 -33 c3 -5 1 -10 -4 -10 -6 0 -11 5 -11 10 0 6 2 10 4 10 3 0 8
-4 11 -10z m2522 -42 c-3 -7 -5 -2 -5 12 0 14 2 19 5 13 2 -7 2 -19 0 -25z
m-752 11 c-3 -4 15 -29 38 -55 24 -27 54 -62 68 -79 13 -16 41 -48 63 -70 42
-44 72 -85 61 -85 -3 0 -29 21 -57 48 -98 91 -188 192 -172 192 4 0 -2 10 -14
23 -12 13 -20 26 -17 29 8 8 35 6 30 -3z m390 -8 c-3 -6 -11 -11 -16 -11 -5 0
-4 6 3 14 14 16 24 13 13 -3z m309 11 c3 -5 -1 -9 -9 -9 -8 0 -12 4 -9 9 3 4
7 8 9 8 2 0 6 -4 9 -8z m706 -27 c0 -5 -5 -3 -10 5 -5 8 -10 20 -10 25 0 6 5
3 10 -5 5 -8 10 -19 10 -25z m-3037 -10 c4 3 5 2 2 -2 -3 -3 2 -15 12 -25 9
-10 13 -18 9 -18 -8 0 -36 27 -56 55 -14 19 -14 19 6 2 11 -9 24 -15 27 -12z
m4197 -10 l25 -30 -27 24 c-16 14 -28 29 -28 34 0 6 1 8 3 6 1 -2 13 -17 27
-34z m-4275 -5 c20 -38 19 -43 -4 -31 -19 10 -35 61 -20 61 5 0 15 -13 24 -30z
m2092 7 c0 -8 -6 -14 -14 -14 -9 0 -10 4 -2 14 6 7 12 13 14 13 1 0 2 -6 2
-13z m2139 -19 l29 -33 -32 29 c-31 28 -38 36 -30 36 2 0 16 -15 33 -32z m89
-38 c10 -11 16 -20 13 -20 -3 0 -13 9 -23 20 -10 11 -16 20 -13 20 3 0 13 -9
23 -20z m-4190 0 c3 -5 1 -10 -4 -10 -6 0 -11 5 -11 10 0 6 2 10 4 10 3 0 8
-4 11 -10z m356 -23 c-10 -9 -11 -8 -5 6 3 10 9 15 12 12 3 -3 0 -11 -7 -18z
m1573 -52 c-14 -60 -14 -60 -9 -11 3 27 5 58 5 69 0 13 4 17 9 12 6 -6 4 -33
-5 -70z m-2008 38 c-7 -7 -26 7 -26 19 0 6 6 6 15 -2 9 -7 13 -15 11 -17z
m132 -3 c45 -27 40 -34 -5 -8 -47 27 -49 28 -37 28 5 0 24 -9 42 -20z m4142
-32 c15 -21 17 -28 6 -19 -16 13 -41 51 -33 51 2 0 14 -15 27 -32z m-4371 -30
l22 -43 -26 28 c-14 15 -25 35 -25 43 0 23 7 17 29 -28z m296 14 c-3 -3 -11 0
-18 7 -9 10 -8 11 6 5 10 -3 15 -9 12 -12z m80 -50 c-3 -3 -11 0 -18 7 -9 10
-8 11 6 5 10 -3 15 -9 12 -12z m1469 2 c3 -8 2 -12 -4 -9 -6 3 -10 10 -10 16
0 14 7 11 14 -7z m-1573 -21 c13 -16 12 -17 -3 -4 -10 7 -18 15 -18 17 0 8 8
3 21 -13z m149 7 c0 -5 -2 -10 -4 -10 -3 0 -8 5 -11 10 -3 6 -1 10 4 10 6 0
11 -4 11 -10z m3530 -5 c17 -20 -1 -41 -35 -40 -36 2 -52 20 -35 40 16 19 54
19 70 0z m95 -17 c15 -32 15 -32 -2 -12 l-18 21 -18 -21 c-18 -21 -18 -20 -2
12 8 17 18 32 20 32 2 0 12 -15 20 -32z m32 -15 c-3 -10 -5 -2 -5 17 0 19 2
27 5 18 2 -10 2 -26 0 -35z m283 -5 c0 -5 -4 -6 -10 -3 -5 3 -10 13 -10 21 0
21 -18 17 -25 -6 -3 -11 -10 -20 -15 -20 -5 0 -1 14 8 30 l17 30 18 -21 c9
-12 17 -25 17 -31z m34 31 c20 3 26 -1 26 -13 0 -8 -4 -17 -9 -20 -5 -3 -8 0
-7 7 0 6 -3 12 -9 12 -5 0 -9 -6 -9 -12 1 -7 -2 -13 -7 -13 -5 0 -9 15 -9 33
0 21 3 28 9 19 4 -8 11 -13 15 -13z m86 -9 c0 -25 -4 -30 -25 -30 -44 0 -26
46 23 59 1 1 2 -12 2 -29z m82 0 c3 -16 1 -30 -4 -30 -4 0 -8 14 -8 30 0 17 2
30 4 30 2 0 6 -13 8 -30z m73 10 l7 23 19 -24 c15 -19 19 -20 19 -7 0 9 4 19
10 23 5 3 5 -7 -1 -25 -13 -36 -24 -38 -33 -7 l-6 22 -14 -24 c-13 -24 -14
-24 -25 -3 -6 11 -11 27 -11 34 1 7 7 2 14 -11 l14 -24 7 23z m-486 -10 c18 9
21 8 21 -10 0 -11 -5 -20 -11 -20 -5 0 -7 5 -4 10 3 6 1 10 -4 10 -6 0 -11 -3
-11 -7 0 -5 -12 -9 -27 -10 -17 -1 -22 2 -13 7 11 7 11 12 0 27 -14 17 -14 17
7 0 17 -15 25 -16 42 -7z m99 11 c-2 -5 6 -17 17 -25 13 -11 15 -15 5 -14 -21
4 -42 26 -35 38 8 13 16 13 13 1z m502 -22 c0 -14 -7 -19 -25 -19 -27 0 -34
17 -10 26 8 4 12 10 9 15 -3 5 2 6 10 3 9 -3 16 -15 16 -25z m25 21 c-3 -6 1
-13 9 -16 9 -3 13 -10 10 -15 -3 -5 -12 -2 -20 6 -13 13 -12 35 2 35 3 0 2 -5
-1 -10z m-555 -30 c0 -6 -5 -10 -12 -10 -6 0 -8 3 -5 7 4 3 -1 12 -11 20 -15
13 -15 13 6 3 12 -6 22 -15 22 -20z m295 0 c7 0 16 8 18 18 4 13 5 11 6 -5 1
-18 -4 -23 -24 -23 -20 0 -25 5 -24 23 1 16 2 18 6 5 2 -10 11 -18 18 -18z
m302 -2 c-3 -7 -5 -2 -5 12 0 14 2 19 5 13 2 -7 2 -19 0 -25z m20 0 c-3 -7 -5
-2 -5 12 0 14 2 19 5 13 2 -7 2 -19 0 -25z m-2803 -48 c-4 -34 -10 -58 -14
-53 -7 8 10 126 18 119 2 -2 0 -32 -4 -66z m-1857 18 c-3 -8 -6 -5 -6 6 -1 11
2 17 5 13 3 -3 4 -12 1 -19z m1777 -40 c3 3 6 3 6 -1 0 -22 -22 -10 -50 26
l-32 42 35 -37 c20 -20 38 -34 41 -30z m-1365 26 c14 -12 -19 -1 -35 12 -18
14 -18 14 6 3 14 -6 27 -13 29 -15z m-294 -133 c-3 -3 -18 8 -33 23 l-27 29
32 -23 c18 -13 30 -26 28 -29z"/>
<path d="M3119 3583 c-13 -16 -12 -17 4 -4 16 13 21 21 13 21 -2 0 -10 -8 -17
-17z"/>
<path d="M1549 1823 c-13 -16 -12 -17 4 -4 9 7 17 15 17 17 0 8 -8 3 -21 -13z"/>
<path d="M1948 1703 c7 -3 16 -2 19 1 4 3 -2 6 -13 5 -11 0 -14 -3 -6 -6z"/>
<path d="M2516 1418 c3 -4 9 -8 15 -8 5 0 9 4 9 8 0 5 -7 9 -15 9 -8 0 -12 -4
-9 -9z"/>
<path d="M3924 218 c-9 -15 4 -24 33 -22 16 0 28 6 28 14 0 14 -53 21 -61 8z"/>
<path d="M4486 213 c-11 -11 -6 -23 9 -23 8 0 15 4 15 9 0 13 -16 22 -24 14z"/>
<path d="M4758 193 c7 -3 16 -2 19 1 4 3 -2 6 -13 5 -11 0 -14 -3 -6 -6z"/>
</g>
</svg>
